<svg xmlns="http://www.w3.org/2000/svg" xmlns:xlink="http://www.w3.org/1999/xlink" width="618.568" height="195.711" viewBox="0 0 618.568 195.711">
  <defs>
    <linearGradient id="linear-gradient" x1="0.5" y1="0.936" x2="0.5" y2="0.119" gradientUnits="objectBoundingBox">
      <stop offset="0.151" stop-color="#333"/>
      <stop offset="1" stop-color="#875454"/>
    </linearGradient>
  </defs>
  <g id="Group_208" data-name="Group 208" transform="translate(-30.654 -27.051)">
    <rect id="Rectangle_271" data-name="Rectangle 271" width="133.11" height="87.671" rx="6.506" transform="translate(93.715 27.551)" fill="none" stroke="#e02b2b" stroke-miterlimit="10" stroke-width="1"/>
    <rect id="Rectangle_272" data-name="Rectangle 272" width="109.8" height="72.318" rx="6.506" transform="translate(57.204 149.444)" fill="none" stroke="#e02b2b" stroke-miterlimit="10" stroke-width="1"/>
    <rect id="Rectangle_273" data-name="Rectangle 273" width="133.11" height="87.671" rx="6.506" transform="translate(103.492 35.996)" fill="url(#linear-gradient)"/>
    <g id="Group_202" data-name="Group 202">
      <g id="Rectangle_274" data-name="Rectangle 274" transform="translate(214.391 46.142)" fill="#fff" stroke="#ff7676" stroke-miterlimit="10" stroke-width="1">
        <path d="M8.428,0H242.79a8.428,8.428,0,0,1,8.428,8.428V157.717a0,0,0,0,1,0,0H0a0,0,0,0,1,0,0V8.428A8.428,8.428,0,0,1,8.428,0Z" stroke="none"/>
        <path d="M8.428-.5H242.79a8.928,8.928,0,0,1,8.928,8.928V157.717a.5.5,0,0,1-.5.5H0a.5.5,0,0,1-.5-.5V8.428A8.928,8.928,0,0,1,8.428-.5Z" fill="none"/>
      </g>
      <g id="Rectangle_275" data-name="Rectangle 275" transform="translate(476.056 221.762) rotate(180)" fill="#fff" stroke="#ff7676" stroke-miterlimit="10" stroke-width="1">
        <path d="M8.428,0H263.683a8.428,8.428,0,0,1,8.428,8.428V17.9a0,0,0,0,1,0,0H0a0,0,0,0,1,0,0V8.428A8.428,8.428,0,0,1,8.428,0Z" stroke="none"/>
        <path d="M8.428-.5H263.683a8.928,8.928,0,0,1,8.928,8.928V17.9a.5.5,0,0,1-.5.5H0a.5.5,0,0,1-.5-.5V8.428A8.928,8.928,0,0,1,8.428-.5Z" fill="none"/>
      </g>
      <path id="Path_410" data-name="Path 410" d="M476.056,213.333a8.429,8.429,0,0,1-8.429,8.429H212.373a8.429,8.429,0,0,1-8.429-8.429Z" fill="#e02b2b"/>
      <rect id="Rectangle_276" data-name="Rectangle 276" width="243.667" height="142.781" rx="4.729" transform="translate(218.167 50.499)" fill="#fff" stroke="#ff7676" stroke-miterlimit="10" stroke-width="1"/>
      <g id="Group_201" data-name="Group 201">
        <path id="Path_411" data-name="Path 411" d="M308.537,203.858a8.415,8.415,0,0,0,7.291,4.214h48.344a8.415,8.415,0,0,0,7.291-4.214Z" fill="#ff7676"/>
      </g>
    </g>
    <rect id="Rectangle_277" data-name="Rectangle 277" width="81.555" height="87.671" rx="6.506" transform="translate(567.167 62.979)" fill="none" stroke="#707070" stroke-miterlimit="10" stroke-width="1"/>
    <rect id="Rectangle_278" data-name="Rectangle 278" width="133.11" height="87.671" rx="6.506" transform="translate(446.817 99.996)" fill="url(#linear-gradient)"/>
    <rect id="Rectangle_279" data-name="Rectangle 279" width="52.444" height="52.444" rx="1" transform="translate(271.666 67.971)" fill="#e02b2b"/>
    <rect id="Rectangle_280" data-name="Rectangle 280" width="108.667" height="52.444" rx="1" transform="translate(325.999 123.362)" fill="#e02b2b"/>
    <g id="Rectangle_281" data-name="Rectangle 281" transform="translate(271.666 123.362)" fill="none" stroke="#e02b2b" stroke-miterlimit="10" stroke-width="1">
      <rect width="52.444" height="52.444" rx="1" stroke="none"/>
      <rect x="0.5" y="0.5" width="51.444" height="51.444" rx="0.5" fill="none"/>
    </g>
    <g id="Rectangle_282" data-name="Rectangle 282" transform="translate(242.722 67.971)" fill="none" stroke="#e02b2b" stroke-miterlimit="10" stroke-width="1">
      <rect width="24.113" height="107.836" rx="1" stroke="none"/>
      <rect x="0.5" y="0.5" width="23.113" height="106.836" rx="0.5" fill="none"/>
    </g>
    <g id="Rectangle_283" data-name="Rectangle 283" transform="translate(327.222 67.971)" fill="none" stroke="#e02b2b" stroke-miterlimit="10" stroke-width="1">
      <rect width="52.444" height="52.444" rx="1" stroke="none"/>
      <rect x="0.5" y="0.5" width="51.444" height="51.444" rx="0.5" fill="none"/>
    </g>
    <g id="Rectangle_284" data-name="Rectangle 284" transform="translate(382.221 67.971)" fill="none" stroke="#e02b2b" stroke-miterlimit="10" stroke-width="1">
      <rect width="52.444" height="52.444" stroke="none"/>
      <rect x="0.5" y="0.5" width="51.444" height="51.444" fill="none"/>
    </g>
    <circle id="Ellipse_537" data-name="Ellipse 537" cx="33.481" cy="33.481" r="33.481" transform="translate(505.981 110.35)" fill="#fff" stroke="#ff7676" stroke-miterlimit="10" stroke-width="1"/>
    <text id="JS" transform="translate(528.301 151.423)" fill="#ff7676" font-size="25.868" font-family="MyriadPro-Regular, Myriad Pro"><tspan x="0" y="0">JS</tspan></text>
    <g id="Group_203" data-name="Group 203">
      <line id="Line_137" data-name="Line 137" x2="43.249" y2="43.249" transform="translate(276.264 127.96)" fill="none" stroke="#ff7676" stroke-miterlimit="10" stroke-width="1"/>
      <line id="Line_138" data-name="Line 138" y1="43.249" x2="43.249" transform="translate(276.264 127.96)" fill="none" stroke="#ff7676" stroke-miterlimit="10" stroke-width="1"/>
    </g>
    <g id="Group_204" data-name="Group 204">
      <line id="Line_139" data-name="Line 139" x2="43.249" y2="43.249" transform="translate(331.737 72.487)" fill="none" stroke="#ff7676" stroke-miterlimit="10" stroke-width="1"/>
      <line id="Line_140" data-name="Line 140" y1="43.249" x2="43.249" transform="translate(331.737 72.487)" fill="none" stroke="#ff7676" stroke-miterlimit="10" stroke-width="1"/>
    </g>
    <circle id="Ellipse_538" data-name="Ellipse 538" cx="9.037" cy="9.037" r="9.037" transform="translate(411.611 74.963)" fill="none" stroke="#ff7676" stroke-miterlimit="10" stroke-width="1"/>
    <rect id="Rectangle_285" data-name="Rectangle 285" width="16.815" height="16.815" transform="translate(389.13 98.407)" fill="none" stroke="#ff7676" stroke-miterlimit="10" stroke-width="1"/>
    <text id="CSS" transform="translate(123.759 98.407)" fill="#fff" font-size="38.119" font-family="MyriadPro-Regular, Myriad Pro"><tspan x="0" y="0">CSS</tspan></text>
    <g id="Group_205" data-name="Group 205">
      <circle id="Ellipse_539" data-name="Ellipse 539" cx="33.481" cy="33.481" r="33.481" transform="translate(31.154 123.667)" fill="#ff7676" stroke="#fff" stroke-miterlimit="10" stroke-width="1"/>
      <path id="Path_412" data-name="Path 412" d="M74.513,154.91a2.585,2.585,0,0,1,0,4.477l-8.586,4.957L57.342,169.3a2.585,2.585,0,0,1-3.877-2.239V147.234A2.584,2.584,0,0,1,57.342,145l8.585,4.957Z" fill="#fff" stroke="#ff7676" stroke-miterlimit="10" stroke-width="1"/>
    </g>
    <g id="Group_206" data-name="Group 206">
      <rect id="Rectangle_286" data-name="Rectangle 286" width="40.296" height="40.296" rx="5.63" transform="translate(521.241 50.499)" fill="#ff7676" stroke="#fff" stroke-miterlimit="10" stroke-width="1"/>
      <line id="Line_141" data-name="Line 141" x2="23.333" transform="translate(529.982 70.647)" fill="#ff7676" stroke="#fff" stroke-linecap="round" stroke-miterlimit="10" stroke-width="3"/>
      <line id="Line_142" data-name="Line 142" y2="23.333" transform="translate(541.648 58.98)" fill="#ff7676" stroke="#fff" stroke-linecap="round" stroke-miterlimit="10" stroke-width="3"/>
    </g>
    <text id="_" data-name="&lt;/ &gt;" transform="translate(89.389 208.073)" fill="#ff1d25" font-size="27.471" font-family="SegoeUI, Segoe UI"><tspan x="0" y="0">&lt;/ &gt;</tspan></text>
    <line id="Line_143" data-name="Line 143" x2="88.889" transform="translate(110.722 51.142)" fill="none" stroke="#fff" stroke-miterlimit="10" stroke-width="1"/>
    <circle id="Ellipse_540" data-name="Ellipse 540" cx="2.667" cy="2.667" r="2.667" transform="translate(111.019 42.926)" fill="none" stroke="#fff" stroke-miterlimit="10" stroke-width="1"/>
    <circle id="Ellipse_541" data-name="Ellipse 541" cx="2.667" cy="2.667" r="2.667" transform="translate(119.454 42.926)" fill="#fff"/>
    <line id="Line_144" data-name="Line 144" x2="7.39" transform="translate(247.389 98.407)" fill="none" stroke="#ff7676" stroke-miterlimit="10" stroke-width="1"/>
    <g id="Group_207" data-name="Group 207">
      <line id="Line_145" data-name="Line 145" x2="15.333" transform="translate(247.112 111.556)" fill="none" stroke="#ff7676" stroke-miterlimit="10" stroke-width="1"/>
      <line id="Line_146" data-name="Line 146" x2="15.333" transform="translate(247.112 117.583)" fill="none" stroke="#ff7676" stroke-miterlimit="10" stroke-width="1"/>
      <line id="Line_147" data-name="Line 147" x2="15.333" transform="translate(247.112 123.611)" fill="none" stroke="#ff7676" stroke-miterlimit="10" stroke-width="1"/>
      <line id="Line_148" data-name="Line 148" x2="15.333" transform="translate(247.112 129.639)" fill="none" stroke="#ff7676" stroke-miterlimit="10" stroke-width="1"/>
      <line id="Line_149" data-name="Line 149" x2="15.333" transform="translate(247.112 135.667)" fill="none" stroke="#ff7676" stroke-miterlimit="10" stroke-width="1"/>
      <line id="Line_150" data-name="Line 150" x2="15.333" transform="translate(247.112 141.694)" fill="none" stroke="#ff7676" stroke-miterlimit="10" stroke-width="1"/>
      <line id="Line_151" data-name="Line 151" x2="15.333" transform="translate(247.112 147.722)" fill="none" stroke="#ff7676" stroke-miterlimit="10" stroke-width="1"/>
      <line id="Line_152" data-name="Line 152" x2="15.333" transform="translate(247.112 153.75)" fill="none" stroke="#ff7676" stroke-miterlimit="10" stroke-width="1"/>
      <line id="Line_153" data-name="Line 153" x2="15.333" transform="translate(247.112 159.778)" fill="none" stroke="#ff7676" stroke-miterlimit="10" stroke-width="1"/>
    </g>
    <path id="Path_413" data-name="Path 413" d="M606.426,157.266a18.5,18.5,0,0,0-15.111,29.27v9.76l4.967-4.967a18.542,18.542,0,1,0,10.144-34.063Z" fill="none" stroke="#ff7676" stroke-miterlimit="10" stroke-width="1"/>
    <circle id="Ellipse_542" data-name="Ellipse 542" cx="1.832" cy="1.832" r="1.832" transform="translate(599.557 174.949)" fill="#ff7676"/>
    <circle id="Ellipse_543" data-name="Ellipse 543" cx="1.832" cy="1.832" r="1.832" transform="translate(605.483 174.949)" fill="#ff7676"/>
    <circle id="Ellipse_544" data-name="Ellipse 544" cx="1.832" cy="1.832" r="1.832" transform="translate(610.816 174.949)" fill="#ff7676"/>
    <line id="Line_154" data-name="Line 154" x2="14.2" transform="translate(624.967 80)" fill="none" stroke="#ff7676" stroke-miterlimit="10" stroke-width="2"/>
    <line id="Line_155" data-name="Line 155" x2="51.333" transform="translate(584.278 88.444)" fill="none" stroke="#ff1d25" stroke-miterlimit="10" stroke-width="2"/>
    <line id="Line_156" data-name="Line 156" x2="51.333" transform="translate(584.278 94.222)" fill="none" stroke="#ff1d25" stroke-miterlimit="10" stroke-width="2"/>
    <line id="Line_157" data-name="Line 157" x2="51.333" transform="translate(584.278 100)" fill="none" stroke="#ff1d25" stroke-miterlimit="10" stroke-width="2"/>
    <line id="Line_158" data-name="Line 158" x2="14.2" transform="translate(624.967 108.633)" fill="none" stroke="#ff7676" stroke-miterlimit="10" stroke-width="2"/>
    <line id="Line_159" data-name="Line 159" x2="14.2" transform="translate(584.278 135.333)" fill="none" stroke="#ff7676" stroke-miterlimit="10" stroke-width="2"/>
    <line id="Line_160" data-name="Line 160" x2="51.333" transform="translate(584.278 117.077)" fill="none" stroke="#ff1d25" stroke-miterlimit="10" stroke-width="2"/>
    <line id="Line_161" data-name="Line 161" x2="51.333" transform="translate(584.278 122.855)" fill="none" stroke="#ff1d25" stroke-miterlimit="10" stroke-width="2"/>
    <line id="Line_162" data-name="Line 162" x2="51.333" transform="translate(584.278 128.633)" fill="none" stroke="#ff1d25" stroke-miterlimit="10" stroke-width="2"/>
    <line id="Line_163" data-name="Line 163" y2="38.267" transform="translate(458.278 124.697)" fill="none" stroke="#ff7676" stroke-linecap="round" stroke-miterlimit="10" stroke-width="4"/>
  </g>
</svg>
