<svg xmlns="http://www.w3.org/2000/svg" width="281" height="111" viewBox="0 0 281 111">
  <g id="dedicated_team" transform="translate(-199.5 -69.5)">
    <rect id="Rectangle_297" data-name="Rectangle 297" width="280" height="110" rx="8.88" transform="translate(200 70)" fill="#e02b2b" stroke="#fff" stroke-miterlimit="10" stroke-width="1"/>
    <g id="Group_216" data-name="Group 216">
      <circle id="Ellipse_554" data-name="Ellipse 554" cx="12.444" cy="12.444" r="12.444" transform="translate(238.37 103.074)" fill="none" stroke="#fff" stroke-miterlimit="10" stroke-width="1"/>
      <path id="Rectangle_298" data-name="Rectangle 298" d="M33.185,0h5.333A33.185,33.185,0,0,1,71.7,33.185v0a0,0,0,0,1,0,0H0a0,0,0,0,1,0,0v0A33.185,33.185,0,0,1,33.185,0Z" transform="translate(214.963 134.778)" fill="none" stroke="#fff" stroke-miterlimit="10" stroke-width="1"/>
      <circle id="Ellipse_555" data-name="Ellipse 555" cx="16.479" cy="16.479" r="16.479" transform="translate(321.805 82.037)" fill="none" stroke="#fff" stroke-miterlimit="10" stroke-width="1"/>
      <path id="Rectangle_299" data-name="Rectangle 299" d="M33.185,0h28.58A33.185,33.185,0,0,1,94.95,33.185V43.944a0,0,0,0,1,0,0H0a0,0,0,0,1,0,0V33.185A33.185,33.185,0,0,1,33.185,0Z" transform="translate(290.809 124.019)" fill="none" stroke="#fff" stroke-miterlimit="10" stroke-width="1"/>
      <circle id="Ellipse_556" data-name="Ellipse 556" cx="12.899" cy="12.899" r="12.899" transform="translate(414.976 100.704)" fill="none" stroke="#fff" stroke-miterlimit="10" stroke-width="1"/>
      <path id="Rectangle_300" data-name="Rectangle 300" d="M33.185,0h7.953A33.185,33.185,0,0,1,74.323,33.185V34.4a0,0,0,0,1,0,0H0a0,0,0,0,1,0,0V33.185A33.185,33.185,0,0,1,33.185,0Z" transform="translate(390.714 133.566)" fill="none" stroke="#fff" stroke-miterlimit="10" stroke-width="1"/>
      <path id="Path_427" data-name="Path 427" d="M250.815,111.31l1.237,2.506,2.766.4-2,1.951.472,2.755-2.474-1.3-2.474,1.3.472-2.755-2-1.951,2.766-.4Z" fill="#fff"/>
      <path id="Path_428" data-name="Path 428" d="M338.284,94.709l1.237,2.506,2.766.4-2,1.951.472,2.755-2.474-1.3-2.474,1.3.472-2.755-2-1.951,2.766-.4Z" fill="#fff"/>
      <path id="Path_429" data-name="Path 429" d="M427.876,109.8l1.237,2.506,2.766.4-2,1.951.472,2.755-2.474-1.3-2.474,1.3.472-2.755-2-1.951,2.766-.4Z" fill="#fff"/>
    </g>
  </g>
</svg>
