<svg xmlns="http://www.w3.org/2000/svg" xmlns:xlink="http://www.w3.org/1999/xlink" width="628.508" height="197.876" viewBox="0 0 628.508 197.876">
  <defs>
    <linearGradient id="linear-gradient" x1="0.5" y1="0.804" x2="0.5" y2="0.138" gradientUnits="objectBoundingBox">
      <stop offset="0" stop-color="#333"/>
      <stop offset="1" stop-color="#875454"/>
    </linearGradient>
    <linearGradient id="linear-gradient-10" x1="-6.632" y1="0.5" x2="7.632" y2="0.5" xlink:href="#linear-gradient"/>
  </defs>
  <g id="Group_198" data-name="Group 198" transform="translate(-22.5 -19.537)">
    <path id="Path_390" data-name="Path 390" d="M22.5,75.513H170.056L135.738,24.8a8.129,8.129,0,0,0-7.4-4.766H64.218a8.129,8.129,0,0,0-7.4,4.766Z" fill="#333"/>
    <path id="Path_391" data-name="Path 391" d="M167.611,205.634h62.222V79.823" fill="none" stroke="#e02b2b" stroke-miterlimit="10" stroke-width="1"/>
    <rect id="Rectangle_245" data-name="Rectangle 245" width="127.798" height="66.37" transform="translate(33.52 112.741)" fill="#333"/>
    <rect id="Rectangle_246" data-name="Rectangle 246" width="147.556" height="47.023" rx="5.426" transform="translate(22.5 71.114)" fill="url(#linear-gradient)"/>
    <circle id="Ellipse_528" data-name="Ellipse 528" cx="6.966" cy="6.966" r="6.966" transform="translate(147.385 88.71)" stroke="#fff" stroke-miterlimit="10" stroke-width="1" fill="url(#linear-gradient)"/>
    <circle id="Ellipse_529" data-name="Ellipse 529" cx="6.966" cy="6.966" r="6.966" transform="translate(128.407 88.71)" stroke="#fff" stroke-miterlimit="10" stroke-width="1" fill="url(#linear-gradient)"/>
    <line id="Line_133" data-name="Line 133" x1="72.547" transform="translate(33.52 96.638)" fill="#fff" stroke="#fff" stroke-linecap="round" stroke-miterlimit="10" stroke-width="6"/>
    <rect id="Rectangle_247" data-name="Rectangle 247" width="147.556" height="47.023" rx="5.426" transform="translate(22.5 120.119)" fill="url(#linear-gradient)"/>
    <circle id="Ellipse_530" data-name="Ellipse 530" cx="6.966" cy="6.966" r="6.966" transform="translate(147.385 137.716)" stroke="#fff" stroke-miterlimit="10" stroke-width="1" fill="url(#linear-gradient)"/>
    <circle id="Ellipse_531" data-name="Ellipse 531" cx="6.966" cy="6.966" r="6.966" transform="translate(128.407 137.716)" stroke="#fff" stroke-miterlimit="10" stroke-width="1" fill="url(#linear-gradient)"/>
    <line id="Line_134" data-name="Line 134" x1="72.547" transform="translate(33.52 145.643)" fill="#fff" stroke="#fff" stroke-linecap="round" stroke-miterlimit="10" stroke-width="6"/>
    <rect id="Rectangle_248" data-name="Rectangle 248" width="147.556" height="47.023" rx="5.426" transform="translate(22.5 169.125)" fill="url(#linear-gradient)"/>
    <circle id="Ellipse_532" data-name="Ellipse 532" cx="6.966" cy="6.966" r="6.966" transform="translate(147.385 186.721)" stroke="#fff" stroke-miterlimit="10" stroke-width="1" fill="url(#linear-gradient)"/>
    <circle id="Ellipse_533" data-name="Ellipse 533" cx="6.966" cy="6.966" r="6.966" transform="translate(128.407 186.721)" stroke="#fff" stroke-miterlimit="10" stroke-width="1" fill="url(#linear-gradient)"/>
    <line id="Line_135" data-name="Line 135" x1="72.547" transform="translate(33.52 194.648)" fill="#fff" stroke="#fff" stroke-linecap="round" stroke-miterlimit="10" stroke-width="6"/>
    <path id="Path_392" data-name="Path 392" d="M477.437,213.359H355.463V125" fill="#fff" stroke="#ff7676" stroke-miterlimit="10" stroke-width="1"/>
    <rect id="Rectangle_249" data-name="Rectangle 249" width="46.142" height="35.776" transform="translate(493.624 175.497)" fill="#ff1d25" stroke="#ff1d25" stroke-miterlimit="10" stroke-width="1"/>
    <rect id="Rectangle_250" data-name="Rectangle 250" width="46.142" height="35.776" transform="translate(489.009 175.497)" fill="#fff" stroke="#ff7676" stroke-miterlimit="10" stroke-width="1"/>
    <path id="Rectangle_251" data-name="Rectangle 251" d="M7.725,0h67.68a7.725,7.725,0,0,1,7.725,7.725v3.554a0,0,0,0,1,0,0H0a0,0,0,0,1,0,0V7.725A7.725,7.725,0,0,1,7.725,0Z" transform="translate(477.437 205.634)" fill="#ff1d25" stroke="#ff1d25" stroke-miterlimit="10" stroke-width="1"/>
    <path id="Rectangle_252" data-name="Rectangle 252" d="M7.725,0h67.68a7.725,7.725,0,0,1,7.725,7.725v3.554a0,0,0,0,1,0,0H0a0,0,0,0,1,0,0V7.725A7.725,7.725,0,0,1,7.725,0Z" transform="translate(470.515 205.634)" fill="#fff" stroke="#ff7676" stroke-miterlimit="10" stroke-width="1"/>
    <rect id="Rectangle_253" data-name="Rectangle 253" width="251.219" height="157.717" rx="11.296" transform="translate(399.288 25.248)" fill="#ff1d25" stroke="#ff1d25" stroke-miterlimit="10" stroke-width="1"/>
    <rect id="Rectangle_254" data-name="Rectangle 254" width="251.219" height="157.717" rx="11.296" transform="translate(391.085 25.248)" fill="#fff" stroke="#ff7676" stroke-miterlimit="10" stroke-width="1"/>
    <rect id="Rectangle_255" data-name="Rectangle 255" width="238.914" height="142.781" rx="7.109" transform="translate(397.238 32.716)" fill="#fff" stroke="#ff7676" stroke-miterlimit="10" stroke-width="1"/>
    <rect id="Rectangle_256" data-name="Rectangle 256" width="8.985" height="208.91" rx="4.493" transform="translate(414.548 159.353) rotate(-90)" fill="#f2f2f2"/>
    <rect id="Rectangle_257" data-name="Rectangle 257" width="8.985" height="128.174" rx="4.493" transform="translate(414.548 159.353) rotate(-90)" fill="url(#linear-gradient-10)"/>
    <rect id="Rectangle_258" data-name="Rectangle 258" width="98.497" height="142.781" rx="7.109" transform="translate(243.929 20.037)" fill="#ff1d25" stroke="#ff1d25" stroke-miterlimit="10" stroke-width="1"/>
    <rect id="Rectangle_259" data-name="Rectangle 259" width="98.497" height="142.781" rx="7.109" transform="translate(243.929 20.037)" fill="#fff" stroke="#ff7676" stroke-miterlimit="10" stroke-width="1"/>
    <path id="Path_393" data-name="Path 393" d="M207.553,44.026l-8.568-.692c-.207-.576-.442-1.138-.7-1.687l5.569-6.549a3.277,3.277,0,0,0-.179-4.441l-3.729-3.729a3.277,3.277,0,0,0-4.441-.179l-6.549,5.569c-.549-.258-1.111-.493-1.687-.7l-.692-8.568a3.277,3.277,0,0,0-3.267-3.013h-5.274a3.277,3.277,0,0,0-3.267,3.013l-.693,8.568c-.575.207-1.137.442-1.686.7l-6.55-5.569a3.275,3.275,0,0,0-4.44.179l-3.73,3.729a3.279,3.279,0,0,0-.179,4.441l5.57,6.549q-.389.823-.7,1.687l-8.567.692a3.278,3.278,0,0,0-3.013,3.267v5.274a3.277,3.277,0,0,0,3.013,3.267l8.567.693q.312.863.7,1.686l-5.57,6.55a3.277,3.277,0,0,0,.179,4.44l3.73,3.73a3.277,3.277,0,0,0,4.44.179l6.55-5.57c.549.259,1.111.494,1.686.7l.693,8.567a3.277,3.277,0,0,0,3.267,3.013h5.274a3.277,3.277,0,0,0,3.267-3.013l.692-8.567c.576-.207,1.138-.442,1.687-.7l6.549,5.57a3.279,3.279,0,0,0,4.441-.179l3.729-3.73a3.275,3.275,0,0,0,.179-4.44l-5.569-6.55c.258-.549.493-1.111.7-1.686l8.568-.693a3.277,3.277,0,0,0,3.013-3.267V47.293A3.278,3.278,0,0,0,207.553,44.026Z" fill="#fff" stroke="#ff7676" stroke-miterlimit="10" stroke-width="1"/>
    <path id="Path_394" data-name="Path 394" d="M377.54,51.792l-7.036-.568q-.256-.709-.576-1.386l4.575-5.379a2.693,2.693,0,0,0-.147-3.647l-3.064-3.063a2.691,2.691,0,0,0-3.647-.147l-5.379,4.574c-.451-.212-.912-.4-1.385-.575l-.569-7.037a2.692,2.692,0,0,0-2.683-2.475H353.3a2.692,2.692,0,0,0-2.683,2.475l-.569,7.037c-.473.17-.934.363-1.385.575L343.281,37.6a2.692,2.692,0,0,0-3.648.147l-3.063,3.063a2.693,2.693,0,0,0-.147,3.647L341,49.838q-.319.677-.576,1.386l-7.036.568a2.693,2.693,0,0,0-2.475,2.684v4.331a2.691,2.691,0,0,0,2.475,2.683l7.036.569q.256.71.576,1.385l-4.575,5.38a2.693,2.693,0,0,0,.147,3.647l3.063,3.063a2.692,2.692,0,0,0,3.648.147l5.379-4.574c.451.212.912.4,1.385.575l.569,7.037a2.692,2.692,0,0,0,2.683,2.475h4.332a2.692,2.692,0,0,0,2.683-2.475l.569-7.037c.473-.17.934-.363,1.385-.575l5.379,4.574a2.691,2.691,0,0,0,3.647-.147l3.064-3.063a2.693,2.693,0,0,0,.147-3.647l-4.575-5.38q.319-.675.576-1.385l7.036-.569a2.692,2.692,0,0,0,2.475-2.683V54.476A2.693,2.693,0,0,0,377.54,51.792Z" fill="#ff7676"/>
    <circle id="Ellipse_534" data-name="Ellipse 534" cx="13.055" cy="13.055" r="13.055" transform="translate(167.618 36.876)" fill="#fff" stroke="#ff7676" stroke-miterlimit="10" stroke-width="1"/>
    <g id="Group_196" data-name="Group 196">
      <path id="Path_395" data-name="Path 395" d="M563.442,96.755A42.4,42.4,0,0,0,480.8,85.892,39.435,39.435,0,0,0,449.386,124.5c0,.575.019,1.145.043,1.714h64.764l6.328-9.223L531.563,100.9,542.6,116.99l6.329,9.223h35.016c.033-.567.055-1.138.055-1.714A29,29,0,0,0,563.442,96.755Z" fill="#ff7676" stroke="#fff" stroke-miterlimit="10" stroke-width="1"/>
      <path id="Path_396" data-name="Path 396" d="M531.563,100.9,520.521,116.99l-6.329,9.223h34.74L542.6,116.99Z" fill="#ff7676" stroke="#fff" stroke-miterlimit="10" stroke-width="1"/>
    </g>
    <circle id="Ellipse_535" data-name="Ellipse 535" cx="6.977" cy="6.977" r="6.977" transform="translate(222.856 72.846)" fill="#e02b2b" stroke="#fff" stroke-miterlimit="10" stroke-width="1"/>
    <circle id="Ellipse_536" data-name="Ellipse 536" cx="4.934" cy="4.934" r="4.934" transform="translate(350.529 120.066)" fill="#e02b2b" stroke="#fff" stroke-miterlimit="10" stroke-width="1"/>
    <rect id="Rectangle_260" data-name="Rectangle 260" width="82.201" height="73.445" rx="4.838" transform="translate(252.077 81.415)" fill="#fff" stroke="#ff7676" stroke-miterlimit="10" stroke-width="1"/>
    <g id="Group_197" data-name="Group 197">
      <path id="Path_397" data-name="Path 397" d="M266.1,123.111h-4.087a2.845,2.845,0,0,0-2.845,2.845v28.9h9.777v-28.9A2.845,2.845,0,0,0,266.1,123.111Z" fill="#ff7676"/>
      <path id="Path_398" data-name="Path 398" d="M277.726,108.889h-4.087a2.845,2.845,0,0,0-2.845,2.845V154.86h9.777V111.734A2.845,2.845,0,0,0,277.726,108.889Z" fill="#ff7676"/>
      <path id="Path_399" data-name="Path 399" d="M289.353,135.259h-4.087a2.846,2.846,0,0,0-2.845,2.846V154.86H292.2V138.1A2.845,2.845,0,0,0,289.353,135.259Z" fill="#ff7676"/>
      <path id="Path_400" data-name="Path 400" d="M300.98,120.066h-4.087a2.846,2.846,0,0,0-2.845,2.846V154.86h9.777V122.912A2.845,2.845,0,0,0,300.98,120.066Z" fill="#ff7676"/>
      <path id="Path_401" data-name="Path 401" d="M312.607,100H308.52a2.845,2.845,0,0,0-2.845,2.845V154.86h9.777V102.845A2.845,2.845,0,0,0,312.607,100Z" fill="#ff7676"/>
      <path id="Path_402" data-name="Path 402" d="M324.234,123.111h-4.087a2.845,2.845,0,0,0-2.845,2.845v28.9h9.777v-28.9A2.845,2.845,0,0,0,324.234,123.111Z" fill="#ff7676"/>
    </g>
    <path id="Path_403" data-name="Path 403" d="M267.948,153.2a22.539,22.539,0,0,0-43.935-5.775,20.964,20.964,0,0,0-16.7,20.524c0,.3.01.609.023.911H278.85c.018-.3.029-.6.029-.911A15.418,15.418,0,0,0,267.948,153.2Z" fill="#fff" stroke="#ff7676" stroke-miterlimit="10" stroke-width="1"/>
    <rect id="Rectangle_261" data-name="Rectangle 261" width="14.815" height="14.815" rx="2.37" transform="translate(251.759 30.667)" fill="#ff7676"/>
    <line id="Line_136" data-name="Line 136" x2="39.77" transform="translate(270.794 36.876)" fill="#ff1d25" stroke="#ff1d25" stroke-miterlimit="10" stroke-width="1"/>
  </g>
</svg>
