<svg xmlns="http://www.w3.org/2000/svg" width="281" height="111" viewBox="0 0 281 111">
  <g id="permenant_quality_assurance" transform="translate(-199.5 -69.5)">
    <rect id="Rectangle_301" data-name="Rectangle 301" width="280" height="110" rx="8.88" transform="translate(200 70)" fill="#e02b2b" stroke="#fff" stroke-miterlimit="10" stroke-width="1"/>
    <line id="Line_177" data-name="Line 177" x2="250.074" transform="translate(211.463 125)" fill="#e02b2b" stroke="#fff" stroke-miterlimit="10" stroke-width="1"/>
    <circle id="Ellipse_557" data-name="Ellipse 557" cx="5.481" cy="5.481" r="5.481" transform="translate(205.981 119.519)" fill="#fff" stroke="#e02b2b" stroke-miterlimit="10" stroke-width="1"/>
    <path id="Path_430" data-name="Path 430" d="M467.841,125l-6.3,3.64-6.3,3.64V117.721l6.3,3.64Z" fill="#fff" stroke="#e02b2b" stroke-miterlimit="10" stroke-width="1"/>
    <circle id="Ellipse_558" data-name="Ellipse 558" cx="19.593" cy="19.593" r="19.593" transform="translate(237.5 105.407)" fill="#fff" stroke="#e02b2b" stroke-miterlimit="10" stroke-width="1"/>
    <circle id="Ellipse_559" data-name="Ellipse 559" cx="19.593" cy="19.593" r="19.593" transform="translate(292.019 105.407)" fill="#fff" stroke="#e02b2b" stroke-miterlimit="10" stroke-width="1"/>
    <circle id="Ellipse_560" data-name="Ellipse 560" cx="19.593" cy="19.593" r="19.593" transform="translate(346.537 105.407)" fill="#fff" stroke="#e02b2b" stroke-miterlimit="10" stroke-width="1"/>
    <circle id="Ellipse_561" data-name="Ellipse 561" cx="22.685" cy="22.685" r="22.685" transform="translate(397.963 102.315)" fill="#e02b2b" stroke="#fff" stroke-miterlimit="10" stroke-width="1"/>
    <path id="Path_431" data-name="Path 431" d="M250.2,122.63l5.871,7.259,7.907-9.778" fill="#fff" stroke="#e02b2b" stroke-linecap="round" stroke-miterlimit="10" stroke-width="2"/>
    <path id="Path_432" data-name="Path 432" d="M304.722,122.63l5.871,7.259,7.907-9.778" fill="#fff" stroke="#e02b2b" stroke-linecap="round" stroke-miterlimit="10" stroke-width="2"/>
    <path id="Path_433" data-name="Path 433" d="M359.241,122.63l5.871,7.259,7.907-9.778" fill="#fff" stroke="#e02b2b" stroke-linecap="round" stroke-miterlimit="10" stroke-width="2"/>
    <line id="Line_178" data-name="Line 178" x2="10.667" transform="translate(248.204 163.259)" fill="#e02b2b" stroke="#fff" stroke-linecap="round" stroke-miterlimit="10" stroke-width="2"/>
    <line id="Line_179" data-name="Line 179" x2="10.667" transform="translate(306.278 163.259)" fill="#e02b2b" stroke="#fff" stroke-linecap="round" stroke-miterlimit="10" stroke-width="2"/>
    <line id="Line_180" data-name="Line 180" x2="10.667" transform="translate(359.241 163.259)" fill="#e02b2b" stroke="#fff" stroke-linecap="round" stroke-miterlimit="10" stroke-width="2"/>
  </g>
</svg>
