<svg id="design" xmlns="http://www.w3.org/2000/svg" width="32.917" height="53.593" viewBox="0 0 32.917 53.593">
  <path id="Path_220" data-name="Path 220" d="M32.857,6.581a.815.815,0,0,0-1.374.789c1.706,5.886,5.9,18.936,11.657,27.136,7.617,10.85,7.839,10.031,7.839,10.031l2.081-1.2,2.082-1.2s.819.222-4.717-11.825C46.242,21.217,37.082,11.019,32.857,6.581Z" transform="translate(-31.449 -6.323)" fill="#e02b2b"/>
  <path id="Path_221" data-name="Path 221" d="M68.581,75.455s-2.37,5.514,1.207,6.92,7.064-3.366,7.971,3.033c0,0,2.724-13.33-6.056-11.747Z" transform="translate(-45.241 -31.816)" fill="#e02b2b"/>
  <path id="Path_222" data-name="Path 222" d="M67.56,64.876,63.4,67.267l3.211,4.384,3.122-1.794Z" transform="translate(-43.567 -28.533)" fill="#e02b2b"/>
</svg>
