<svg xmlns="http://www.w3.org/2000/svg" width="49.739" height="39.326" viewBox="0 0 49.739 39.326">
  <g id="ecommerce_h" transform="translate(0.5 0.5)">
    <circle id="Ellipse_248" data-name="Ellipse 248" cx="3.338" cy="3.338" r="3.338" transform="translate(20.026 31.151)" fill="none" stroke="#fff" stroke-linecap="round" stroke-miterlimit="10" stroke-width="2"/>
    <circle id="Ellipse_249" data-name="Ellipse 249" cx="3.338" cy="3.338" r="3.338" transform="translate(35.601 31.151)" fill="none" stroke="#fff" stroke-linecap="round" stroke-miterlimit="10" stroke-width="2"/>
    <circle id="Ellipse_250" data-name="Ellipse 250" cx="2.225" cy="2.225" r="2.225" fill="#fff" stroke="#fff" stroke-width="1"/>
    <path id="Path_227" data-name="Path 227" d="M19.859,35.2l5.563,1.113,4.5,19.812a5.991,5.991,0,0,0,5.843,4.664H59.651a4.115,4.115,0,0,1,2.47.823l3.353,2.514" transform="translate(-17.634 -32.975)" fill="none" stroke="#fff" stroke-linecap="round" stroke-miterlimit="10" stroke-width="2"/>
    <path id="Path_228" data-name="Path 228" d="M61.444,60.071H43.975a5.992,5.992,0,0,1-5.843-4.664L35.205,42.525h30.73Z" transform="translate(-23.123 -35.595)" fill="none" stroke="#fff" stroke-linecap="round" stroke-miterlimit="10" stroke-width="2"/>
    <line id="Line_61" data-name="Line 61" x1="7.652" transform="translate(8.604 6.93)" fill="#e02b2b" stroke="#fff" stroke-miterlimit="10" stroke-width="2"/>
    <line id="Line_62" data-name="Line 62" y2="5.234" transform="translate(26.082 13.444)" fill="#e02b2b" stroke="#fff" stroke-linecap="round" stroke-miterlimit="10" stroke-width="2"/>
    <line id="Line_63" data-name="Line 63" x1="5.234" transform="translate(23.465 16.061)" fill="#e02b2b" stroke="#fff" stroke-linecap="round" stroke-miterlimit="10" stroke-width="2"/>
  </g>
</svg>
