<svg id="marketing_h" xmlns="http://www.w3.org/2000/svg" width="63.809" height="66.647" viewBox="0 0 63.809 66.647">
  <path id="Path_216" data-name="Path 216" d="M28.5,89.994l11.493,11.611a3.065,3.065,0,0,0,3.857.409l6.228-4.075-.143-.676a3.223,3.223,0,0,0-4.918-2.03l-.973.637-12.467-11.9-6.554,4.288Z" transform="translate(-10 -35.867)" fill="#fff"/>
  <path id="Path_434" data-name="Path 434" d="M5.152,0a5.152,5.152,0,0,1,0,10.3C2.307,10.3,2.307,0,5.152,0Z" transform="translate(42.733 19.356) rotate(-45)" fill="none" stroke="#fff" stroke-width="3"/>
  <g id="Path_217" data-name="Path 217" transform="translate(-5.431 -8.944)" fill="none" stroke-miterlimit="10">
    <path d="M64.563,46.516c-15.2-4.095-40.589,14.521-40.589,14.521L12.947,44.183S40.005,29.488,42.509,12.808Z" stroke="none"/>
    <path d="M 24.51700210571289 58.21457290649414 C 26.62258911132812 56.77824401855469 30.48883628845215 54.26092147827148 35.23226547241211 51.71980667114258 C 44.8836669921875 46.54941940307617 53.1423225402832 43.92781829833984 59.77883148193359 43.92781829833984 C 60.01638412475586 43.92781829833984 60.25224304199219 43.93127822875977 60.48608016967773 43.93817520141602 L 43.27737808227539 17.63568115234375 C 40.97201919555664 23.68067932128906 35.87047958374023 29.93998336791992 28.05141067504883 36.30210876464844 C 23.08444213867188 40.34356689453125 18.31729316711426 43.35224914550781 15.78042888641357 44.86097717285156 L 24.51700210571289 58.21457290649414 M 23.97402191162109 61.0377082824707 L 12.94699954986572 44.1832275390625 C 12.94699954986572 44.1832275390625 40.00540924072266 29.48840713500977 42.50884246826172 12.80799579620361 L 64.56288909912109 46.51631927490234 C 49.36139297485352 42.42142486572266 23.97402191162109 61.0377082824707 23.97402191162109 61.0377082824707 Z" stroke="none" fill="#fff"/>
  </g>
  <g id="Rectangle_120" data-name="Rectangle 120" transform="translate(34.906 3.278) rotate(-33.195)" fill="#fff" stroke="#fff" stroke-miterlimit="10" stroke-width="2">
    <rect width="5.988" height="43.639" rx="2.994" stroke="none"/>
    <rect x="1" y="1" width="3.988" height="41.639" rx="1.994" fill="none"/>
  </g>
  <g id="Rectangle_121" data-name="Rectangle 121" transform="translate(0 39.365) rotate(-33.195)" fill="none" stroke="#fff" stroke-miterlimit="10" stroke-width="2">
    <path d="M2.463,0H8.982a0,0,0,0,1,0,0V20.141a0,0,0,0,1,0,0H2.463A2.463,2.463,0,0,1,0,17.678V2.463A2.463,2.463,0,0,1,2.463,0Z" stroke="none"/>
    <path d="M2.463,1H6.982a1,1,0,0,1,1,1V18.141a1,1,0,0,1-1,1H2.463A1.463,1.463,0,0,1,1,17.678V2.463A1.463,1.463,0,0,1,2.463,1Z" fill="none"/>
  </g>
</svg>
