<svg xmlns="http://www.w3.org/2000/svg" width="80.622" height="84.845" viewBox="0 0 80.622 84.845">
  <g id="marketing" transform="translate(-0.856 -6.593)">
    <path id="Path_216" data-name="Path 216" d="M29.416,91.582l14.522,14.671a3.873,3.873,0,0,0,4.873.517l7.87-5.149-.181-.855A4.072,4.072,0,0,0,50.286,98.2l-1.229.8L33.305,83.969l-8.281,5.418Z" transform="translate(-5.185 -16.6)" fill="#e02b2b" stroke="#e02b2b" stroke-width="1"/>
    <g id="Path_217" data-name="Path 217" transform="translate(-2.594 -1.333)" fill="none" stroke-miterlimit="10">
      <path d="M78.163,55.4C58.956,50.224,26.88,73.746,26.88,73.746L12.947,52.45S47.135,33.884,50.3,12.808Z" stroke="none"/>
      <path d="M 27.41935729980469 70.9178466796875 C 29.94266891479492 69.17977142333984 35.02663803100586 65.82644653320312 41.35311508178711 62.4372673034668 C 53.47021102905273 55.94598770141602 63.82123565673828 52.65462875366211 72.11863708496094 52.65462875366211 C 72.76326751708984 52.65462875366211 73.39684295654297 52.67510223388672 74.018310546875 52.71591186523438 L 51.13285827636719 17.73681831359863 C 48.44984436035156 25.58682250976562 41.93439102172852 33.75541687011719 31.69870376586914 42.08385467529297 C 25.12068939208984 47.4361572265625 18.82404899597168 51.34731674194336 15.78418445587158 53.13384246826172 L 27.41935729980469 70.9178466796875 M 26.87955665588379 73.74584197998047 L 12.94699668884277 52.45034790039062 C 12.94699668884277 52.45034790039062 47.13508987426758 33.88356018066406 50.29815673828125 12.8080005645752 L 78.16326141357422 55.39820098876953 C 58.95635986328125 50.22436141967773 26.87955665588379 73.74584197998047 26.87955665588379 73.74584197998047 Z" stroke="none" fill="#e02b2b"/>
    </g>
    <g id="Rectangle_120" data-name="Rectangle 120" transform="translate(44.96 10.735) rotate(-33.195)" fill="none" stroke="#e02b2b" stroke-miterlimit="10" stroke-width="2">
      <rect width="7.566" height="55.138" rx="3.783" stroke="none"/>
      <rect x="1" y="1" width="5.566" height="53.138" rx="2.783" fill="none"/>
    </g>
    <g id="Rectangle_121" data-name="Rectangle 121" transform="translate(0.857 56.33) rotate(-33.195)" fill="none" stroke="#e02b2b" stroke-miterlimit="10" stroke-width="2">
      <path d="M2.463,0h8.886a0,0,0,0,1,0,0V25.448a0,0,0,0,1,0,0H2.463A2.463,2.463,0,0,1,0,22.985V2.463A2.463,2.463,0,0,1,2.463,0Z" stroke="none"/>
      <path d="M2.463,1H9.348a1,1,0,0,1,1,1V23.448a1,1,0,0,1-1,1H2.463A1.463,1.463,0,0,1,1,22.985V2.463A1.463,1.463,0,0,1,2.463,1Z" fill="none"/>
    </g>
  </g>
</svg>
