<svg xmlns="http://www.w3.org/2000/svg" width="68.968" height="55.969" viewBox="0 0 68.968 55.969">
  <g id="Group_167" data-name="Group 167" transform="translate(-6.739 119.778)">
    <path id="Path_346" data-name="Path 346" d="M22.841-69.016l-15,15a1.107,1.107,0,0,0,.783,1.889h7.9a1.107,1.107,0,0,1,1.107,1.107v8a1.107,1.107,0,0,0,1.89.783L34.569-57.288" transform="translate(0 -23.903)" fill="#fff" stroke="#e02b2b" stroke-miterlimit="10" stroke-width="1.5"/>
    <path id="Path_347" data-name="Path 347" d="M95.525-69.016l15,15a1.107,1.107,0,0,1-.783,1.889h-7.9a1.107,1.107,0,0,0-1.107,1.107v8a1.107,1.107,0,0,1-1.889.783L83.8-57.288" transform="translate(-35.921 -23.903)" fill="#fff" stroke="#e02b2b" stroke-miterlimit="10" stroke-width="1.5"/>
    <g id="Path_348" data-name="Path 348" transform="translate(-9.566)" fill="#fff" stroke-miterlimit="10">
      <path d="M 50.78720855712891 -64.70478057861328 L 38.49864196777344 -72.73194885253906 C 35.05571365356445 -74.98079681396484 32.32372283935547 -78.14251708984375 30.59801292419434 -81.87532043457031 C 28.87234115600586 -85.60803985595703 28.23352241516113 -89.73739624023438 28.75063133239746 -93.81698608398438 L 30.13958168029785 -104.7735290527344 L 30.1508617401123 -104.8625564575195 L 30.14082145690918 -104.9517517089844 L 29.03049659729004 -114.8151168823242 L 50.78766250610352 -119.0140991210938 L 72.45554351806641 -114.8156204223633 L 71.34516143798828 -104.9517517089844 L 71.33512115478516 -104.8625717163086 L 71.34640502929688 -104.7735366821289 L 72.738525390625 -93.79106903076172 C 73.25487518310547 -89.71775817871094 72.61880493164062 -85.59410095214844 70.89907073974609 -81.86586761474609 C 69.17932891845703 -78.13761901855469 66.45539093017578 -74.97708892822266 63.02173233032227 -72.72596740722656 L 50.78720855712891 -64.70478057861328 Z" stroke="none"/>
      <path d="M 50.78738784790039 -118.2502136230469 L 29.85334777832031 -114.2100830078125 L 30.90619659423828 -104.8572692871094 L 29.49467468261719 -93.72268676757812 C 28.99528503417969 -89.78282928466797 29.61221313476562 -85.79490661621094 31.27878570556641 -82.19004058837891 C 32.94537353515625 -78.58510589599609 35.58377838134766 -75.53168487548828 38.90880584716797 -73.35984802246094 L 50.78645324707031 -65.60111236572266 L 62.61052703857422 -73.35319519042969 C 65.92655944824219 -75.52719116210938 68.55720520019531 -78.57946014404297 70.21802520751953 -82.18001556396484 C 71.87884521484375 -85.78054046630859 72.49313354492188 -89.76296234130859 71.99448394775391 -93.69673919677734 L 70.57978057861328 -104.8572845458984 L 71.63274383544922 -114.2111053466797 L 50.78738784790039 -118.2502136230469 M 50.78796005249023 -119.7780075073242 L 73.27832794189453 -115.4201507568359 L 72.09044647216797 -104.8678512573242 L 73.48257446289062 -93.8853759765625 C 74.57096862792969 -85.29930877685547 70.67081451416016 -76.84391784667969 63.43293762207031 -72.09874725341797 L 50.78796005249023 -63.80846405029297 L 38.08848190307617 -72.10404205322266 C 30.83103942871094 -76.84445190429688 26.91658020019531 -85.31200408935547 28.00658416748047 -93.91130828857422 L 29.39552307128906 -104.8678512573242 L 28.20764923095703 -115.4201507568359 L 50.78796005249023 -119.7780075073242 Z" stroke="none" fill="#e02b2b"/>
    </g>
    <g id="Ellipse_297" data-name="Ellipse 297" transform="translate(23.703 -107.765)" fill="#fff" stroke="#e02b2b" stroke-miterlimit="10" stroke-width="1.5">
      <circle cx="17.473" cy="17.473" r="17.473" stroke="none"/>
      <circle cx="17.473" cy="17.473" r="16.723" fill="none"/>
    </g>
    <path id="Path_349" data-name="Path 349" d="M62.223-85.325l2.859,5.793,6.393.929a1.021,1.021,0,0,1,.566,1.742l-4.626,4.51,1.092,6.367a1.022,1.022,0,0,1-1.482,1.077l-5.718-3.006-5.718,3.006a1.021,1.021,0,0,1-1.482-1.077L55.2-72.352l-4.626-4.51A1.021,1.021,0,0,1,51.14-78.6l6.393-.929,2.859-5.793A1.021,1.021,0,0,1,62.223-85.325Z" transform="translate(-20.131 -15.955)" fill="#fff" stroke="#e02b2b" stroke-miterlimit="10" stroke-width="1.5"/>
  </g>
</svg>
