<svg id="consultancy" xmlns="http://www.w3.org/2000/svg" width="67.998" height="90.496" viewBox="0 0 67.998 90.496">
  <path id="Path_1636" data-name="Path 1636" d="M74.609,92.808H33.257A1.187,1.187,0,0,1,32,91.551V81.5a22,22,0,1,1,43.991,0V91.551a1.292,1.292,0,0,1-1.383,1.257ZM34.514,90.294H73.477V81.5a19.488,19.488,0,0,0-38.964,0Z" transform="translate(-32 -2.311)" fill="#eb7a7a"/>
  <path id="Path_1637" data-name="Path 1637" d="M50.8,36.1v3.017a6.169,6.169,0,0,0,6.159,6.159,1.187,1.187,0,0,1,1.257,1.257V51.56l5.028-3.394A14.268,14.268,0,0,0,50.8,36.1Z" transform="translate(-27.17 -8.323)" fill="none"/>
  <path id="Path_1638" data-name="Path 1638" d="M38.1,50.329a14.274,14.274,0,0,0,28.531.754L60.85,54.853a1.786,1.786,0,0,1-.754.251,1.133,1.133,0,0,1-.628-.126,1.32,1.32,0,0,1-.628-1.131V47.689a8.652,8.652,0,0,1-7.416-8.547V36A14.31,14.31,0,0,0,38.1,50.329Z" transform="translate(-30.433 -8.348)" fill="none"/>
  <path id="Path_1639" data-name="Path 1639" d="M86.37,16H56.959A6.169,6.169,0,0,0,50.8,22.159V38.75A16.714,16.714,0,0,1,65.506,51.821l1.76-1.131a1.787,1.787,0,0,1,.754-.251H86.5a6.169,6.169,0,0,0,6.159-6.159h0V22.159A6.361,6.361,0,0,0,86.37,16Z" transform="translate(-27.17 -13.486)" fill="none"/>
  <path id="Path_1640" data-name="Path 1640" d="M52.942,65.045a14.278,14.278,0,0,1-.88-28.531V34A16.792,16.792,0,1,0,69.785,50.717h0v-.88l-2.514,1.634A14.434,14.434,0,0,1,52.942,65.045Z" transform="translate(-30.947 -8.862)" fill="#eb7a7a"/>
  <path id="Path_1641" data-name="Path 1641" d="M86.884,14H57.473A8.69,8.69,0,0,0,48.8,22.673v22a8.652,8.652,0,0,0,7.416,8.547v6.159a1.32,1.32,0,0,0,.628,1.131.942.942,0,0,0,.628.126,1.786,1.786,0,0,0,.754-.251l5.782-3.771,2.514-1.634,2.388-1.634h18.1a8.69,8.69,0,0,0,8.673-8.673v-22A8.882,8.882,0,0,0,86.884,14Zm6.159,30.794h0a6.169,6.169,0,0,1-6.159,6.159H68.533a1.786,1.786,0,0,0-.754.251l-1.76,1.131-2.262,1.508-5.028,3.394V52.209a1.187,1.187,0,0,0-1.257-1.257,6.169,6.169,0,0,1-6.159-6.159V22.673a6.169,6.169,0,0,1,6.159-6.159H87.009a6.169,6.169,0,0,1,6.159,6.159V44.794Z" transform="translate(-27.684 -14)" fill="#eb7a7a"/>
  <path id="Path_1642" data-name="Path 1642" d="M66.341,26.514H60.057a1.257,1.257,0,1,1,0-2.514h6.284a1.257,1.257,0,1,1,0,2.514Z" transform="translate(-25.115 -11.431)" fill="#eb7a7a"/>
  <path id="Path_1643" data-name="Path 1643" d="M78.91,31.514H60.057a1.257,1.257,0,1,1,0-2.514H78.91a1.257,1.257,0,1,1,0,2.514Z" transform="translate(-25.115 -10.147)" fill="#eb7a7a"/>
  <path id="Path_1644" data-name="Path 1644" d="M72.626,36.514H60.057a1.257,1.257,0,1,1,0-2.514H72.626a1.257,1.257,0,1,1,0,2.514Z" transform="translate(-25.115 -8.862)" fill="#eb7a7a"/>
</svg>
