<svg xmlns="http://www.w3.org/2000/svg" width="97.208" height="90" viewBox="0 0 97.208 90">
  <g id="e-commerce" transform="translate(0)">
    <path id="Path_1645" data-name="Path 1645" d="M97.9,64.7H34.54l-1.692-7.2H89.4a1.764,1.764,0,0,0,1.728-1.368l8.532-36a1.836,1.836,0,0,0-.36-1.548,1.764,1.764,0,0,0-1.4-.684H23.524l-3.06-13A1.836,1.836,0,0,0,18.7,3.5H4.3a1.8,1.8,0,0,0,0,3.6H17.26L31.336,66.9A1.836,1.836,0,0,0,33.1,68.3H97.9a1.8,1.8,0,0,0,0-3.6ZM95.632,21.5,87.964,53.9H31.984L24.352,21.5ZM51.1,75.5a9,9,0,1,0,9,9,9,9,0,0,0-9-9Zm0,14.4a5.4,5.4,0,1,1,5.4-5.4A5.4,5.4,0,0,1,51.1,89.9ZM83.5,75.5a9,9,0,1,0,9,9,9,9,0,0,0-9-9Zm0,14.4a5.4,5.4,0,1,1,5.4-5.4,5.4,5.4,0,0,1-5.4,5.4Z" transform="translate(-2.5 -3.5)" fill="#eb7a7a"/>
  </g>
</svg>
