<svg xmlns="http://www.w3.org/2000/svg" width="67.095" height="90" viewBox="0 0 67.095 90">
  <path id="fintech" d="M18.831,32.362a.479.479,0,0,1,.507-.507H31.6a.507.507,0,1,1,0,1.014H19.338A.479.479,0,0,1,18.831,32.362Zm.507,5.777H31.6a.507.507,0,1,0,0-1.014H19.338a.507.507,0,0,0,0,1.014Zm0,5.169H31.6a.507.507,0,0,0,0-1.014H19.338a.507.507,0,0,0,0,1.014Zm0,5.169H31.6a.507.507,0,1,0,0-1.014H19.338a.507.507,0,1,0,0,1.014Zm0,5.27H31.6a.507.507,0,1,0,0-1.014H19.338a.507.507,0,1,0,0,1.014Zm0,5.169H31.6a.507.507,0,0,0,0-1.014H19.338a.507.507,0,0,0,0,1.014Zm0,5.169H31.6a.507.507,0,0,0,0-1.014H19.338a.507.507,0,0,0,0,1.014Zm0,5.27H31.6a.507.507,0,0,0,0-1.014H19.338a.507.507,0,0,0,0,1.014ZM36.162,10.673H48.426a.507.507,0,1,0,0-1.014H36.162a.507.507,0,1,0,0,1.014Zm0,5.372H48.426a.507.507,0,1,0,0-1.014H36.162a.507.507,0,1,0,0,1.014Zm0,5.372H48.426a.507.507,0,1,0,0-1.014H36.162a.507.507,0,1,0,0,1.014Zm0,5.27H48.426a.507.507,0,1,0,0-1.014H36.162a.507.507,0,1,0,0,1.014Zm0,5.372H48.426a.507.507,0,1,0,0-1.014H36.162a.507.507,0,1,0,0,1.014Zm0,5.27H48.426a.507.507,0,1,0,0-1.014H36.162a.507.507,0,1,0,0,1.014Zm0,5.372H48.426a.507.507,0,1,0,0-1.014H36.162a.507.507,0,1,0,0,1.014Zm0,5.27H48.426a.507.507,0,1,0,0-1.014H36.162a.507.507,0,1,0,0,1.014Zm0,5.372H48.426a.507.507,0,1,0,0-1.014H36.162a.507.507,0,1,0,0,1.014ZM65.25,41.484H52.986a.507.507,0,1,0,0,1.014H65.25a.507.507,0,0,0,0-1.014Zm0,5.372H52.986a.507.507,0,1,0,0,1.014H65.25a.507.507,0,0,0,0-1.014Zm0,5.372H52.986a.507.507,0,1,0,0,1.014H65.25a.507.507,0,0,0,0-1.014Zm18.345,9.932V87.8a7.44,7.44,0,0,1-7.4,7.4H50.655a7.44,7.44,0,0,1-7.4-7.4V73.612H16.5V27.7H33.324V5.2H51.162V38.95H67.986V54.862H76.2A7.29,7.29,0,0,1,83.595,62.159ZM33.324,28.714H17.514V72.6H33.324ZM51.264,54.862H67.074v-14.9H51.264Zm-7.095,3.851H36.162a.507.507,0,1,1,0-1.014h8.716a7.438,7.438,0,0,1,5.372-2.838V6.214H34.338V72.6h8.919V69.355H36.162a.507.507,0,0,1,0-1.014h7.095V63.984H36.162a.507.507,0,1,1,0-1.014h7.095v-.811A6.74,6.74,0,0,1,44.169,58.714Zm38.412,3.446A6.424,6.424,0,0,0,76.2,55.774H50.655a6.424,6.424,0,0,0-6.385,6.385v1.318h0v5.372h0V87.8a6.424,6.424,0,0,0,6.385,6.385H76.3A6.424,6.424,0,0,0,82.682,87.8V62.159ZM64.946,86.686a.479.479,0,0,1-.507-.507V83.139a9.274,9.274,0,0,1-1.723.1v2.838a.507.507,0,1,1-1.014,0V83.139a9.032,9.032,0,0,1-3.851-1.115.487.487,0,0,1-.2-.608l.709-2.23a.457.457,0,0,1,.3-.3.609.609,0,0,1,.405.1A7.4,7.4,0,0,0,62.716,80.1c1.622,0,2.635-.709,2.635-1.926,0-1.014-.405-1.622-2.736-2.432-3.851-1.318-4.662-3.446-4.662-4.966A4.958,4.958,0,0,1,61.6,66.011V62.464a.507.507,0,0,1,1.014,0v3.243a7.179,7.179,0,0,1,1.52-.1h.2V62.464a.507.507,0,1,1,1.014,0v3.243a7.2,7.2,0,0,1,3.041,1.014.487.487,0,0,1,.2.608l-.709,2.128a.457.457,0,0,1-.3.3h-.405a5.481,5.481,0,0,0-3.041-.811c-1.318,0-2.23.709-2.23,1.723,0,.912.608,1.419,2.736,2.23,3.142,1.216,4.561,2.838,4.561,5.27a5.06,5.06,0,0,1-3.851,4.966v3.243C65.453,86.484,65.25,86.686,64.946,86.686Zm3.345-8.716c0-2.027-1.115-3.345-3.953-4.358-1.926-.709-3.446-1.419-3.446-3.142,0-1.622,1.318-2.736,3.243-2.736a7.448,7.448,0,0,1,3.041.709l.405-1.115a7.343,7.343,0,0,0-3.345-.709c-3.041,0-5.068,1.723-5.068,4.155,0,1.723,1.318,3.142,3.953,4.054,2.128.709,3.345,1.622,3.345,3.446,0,1.318-.912,2.939-3.649,2.939a8.08,8.08,0,0,1-3.649-.912l-.405,1.216a9.826,9.826,0,0,0,3.953.811C66.162,82.328,68.291,80.605,68.291,77.97ZM58.358,60.943H53.8c-2.331,0-4.155,1.52-4.155,3.345v4.155a.507.507,0,1,1-1.014,0V64.288c0-2.432,2.331-4.358,5.169-4.358h4.561l.1-1.419c0-.2.1-.3.3-.405a.46.46,0,0,1,.507,0l3.243,2.128a.768.768,0,0,1,.2.405c0,.2-.1.3-.3.405l-3.446,1.723c-.1,0-.1.1-.2.1a.372.372,0,0,1-.3-.1.768.768,0,0,1-.2-.405Zm1.014.608,1.926-.912-1.824-1.216ZM79.236,81.619v4.155c0,2.432-2.331,4.358-5.169,4.358H69.507l.1,1.318a.527.527,0,0,1-.2.405.372.372,0,0,1-.3.1c-.1,0-.2,0-.2-.1l-3.446-1.723c-.2-.1-.3-.2-.3-.405a.527.527,0,0,1,.2-.405l3.243-2.128a.452.452,0,0,1,.507,0c.2.1.3.2.3.405l.1,1.622h4.561c2.331,0,4.155-1.52,4.155-3.345V81.72a.479.479,0,0,1,.507-.507A.464.464,0,0,1,79.236,81.619Zm-10.642,9.02-.1-2.128-1.824,1.115Z" transform="translate(-16.5 -5.2)" fill="#e02b2b"/>
</svg>
