<svg xmlns="http://www.w3.org/2000/svg" width="89.888" height="90" viewBox="0 0 89.888 90">
  <path id="healthcare" d="M39.014,958.81A15.988,15.988,0,0,0,26.971,964.2c-6.772,7.387-6.838,19.472,0,26.8,0,0,0,.032,0,.032.016.018,5.86,6.538,11.753,13.141,2.95,3.306,5.914,6.62,8.169,9.137,1.128,1.258,2.061,2.343,2.744,3.1.342.379.609.655.807.872.1.108.2.193.258.258a1.257,1.257,0,0,0,.161.194.878.878,0,0,0,1.162,0,1.194,1.194,0,0,0,.161-.194c.061-.065.159-.15.258-.258.2-.217.466-.493.807-.872.682-.757,1.618-1.841,2.744-3.1,2.253-2.517,5.222-5.831,8.169-9.137,5.886-6.6,11.7-13.123,11.721-13.141,0,0,0-.032,0-.032,6.838-7.326,6.772-19.411,0-26.8A16.05,16.05,0,0,0,63.81,958.81c-4.435,0-7.538,1.9-10.913,5.36l-.032.032-.9.872a.879.879,0,0,0-.161.129l-.387.42L49.992,964.2l-.032-.032c-3.376-3.466-6.511-5.36-10.946-5.36Zm0,1.744c3.975,0,6.47,1.532,9.718,4.875l1.453,1.421L46.7,970.337a.878.878,0,1,0,1.227,1.227l3.939-3.939q.033-.015.065-.032l.1-.1,1.033-1.033a.883.883,0,0,0,.129-.129l.936-.9c3.25-3.345,5.711-4.875,9.686-4.875A14.2,14.2,0,0,1,74.595,965.4c6.132,6.689,6.187,17.832,0,24.441,0,0-5.859,6.562-11.753,13.173-2.947,3.306-5.885,6.622-8.136,9.137-1.126,1.258-2.065,2.313-2.744,3.067-.211.234-.36.376-.517.549-.154-.169-.279-.321-.484-.549-.68-.754-1.65-1.81-2.777-3.067-2.254-2.516-5.219-5.832-8.169-9.137-5.9-6.611-11.721-13.173-11.721-13.173h-.032c-6.187-6.609-6.132-17.752,0-24.441a14.124,14.124,0,0,1,10.751-4.843ZM12.473,993.648a7.086,7.086,0,0,0-3.842,1.065A4.6,4.6,0,0,0,6.5,998.62v28.671a1.55,1.55,0,0,0,.226.839c.12.242.293.5.484.807.384.607.887,1.367,1.518,2.228,1.261,1.721,2.949,3.847,4.617,5.941,3.242,4.069,6.277,7.759,6.457,7.975v2.712a.878.878,0,1,0,1.744,0v-3.067a.878.878,0,0,0-.194-.549s-3.33-4-6.651-8.169c-1.66-2.084-3.318-4.223-4.552-5.909-.617-.843-1.108-1.553-1.453-2.1-.172-.273-.312-.494-.387-.646a.912.912,0,0,1-.065-.161V998.62A2.637,2.637,0,0,1,9.567,996.2a5.644,5.644,0,0,1,2.906-.807,5.759,5.759,0,0,1,2.938.807,2.637,2.637,0,0,1,1.324,2.422v22.536a.878.878,0,0,0,.258.613l8.2,8.265a6.794,6.794,0,0,0,3.745,2.1,4.16,4.16,0,0,0,3.616-1.13,6.1,6.1,0,0,0,1.453-1.744,3.566,3.566,0,0,0-.291-3.455c-1.837-2.921-5.162-5.03-7.265-7.3h-.032a1.522,1.522,0,0,1-.387-1.84,6.183,6.183,0,0,1,1.421-2.066,5.99,5.99,0,0,1,2.034-1.421,1.532,1.532,0,0,1,1.808.387l.032.032,12.043,12.979v21.245a.878.878,0,1,0,1.744,0v-21.6a.878.878,0,0,0-.226-.581l-12.3-13.225-.032-.032a3.439,3.439,0,0,0-3.616-.807,7.432,7.432,0,0,0-2.744,1.84,7.347,7.347,0,0,0-1.808,2.712,3.52,3.52,0,0,0,.775,3.616c.01.011.022.022.032.032,2.334,2.5,5.535,4.614,7.039,7.006a1.543,1.543,0,0,1,.194,1.744,5.459,5.459,0,0,1-1.1,1.292,2.323,2.323,0,0,1-2.131.646,5.155,5.155,0,0,1-2.777-1.614c0-.011,0-.021,0-.032l-7.943-7.975V998.664a4.6,4.6,0,0,0-2.131-3.907,7.191,7.191,0,0,0-3.874-1.065Zm77.909,0a7.192,7.192,0,0,0-3.874,1.065,4.6,4.6,0,0,0-2.131,3.907V1020.8l-7.943,7.975c0,.01,0,.021,0,.032a5.154,5.154,0,0,1-2.777,1.614,2.322,2.322,0,0,1-2.131-.646,5.312,5.312,0,0,1-1.065-1.292,1.543,1.543,0,0,1,.194-1.744c1.507-2.4,4.671-4.527,7.006-7.038h.032a3.509,3.509,0,0,0,.807-3.616,7.4,7.4,0,0,0-1.84-2.712,7.3,7.3,0,0,0-2.712-1.84,3.492,3.492,0,0,0-3.648.807l-.032.032L58,1025.645a.879.879,0,0,0-.258.581v21.6a.888.888,0,0,0,1.776,0v-21.245L71.558,1013.6a1.484,1.484,0,0,1,1.808-.42,6.669,6.669,0,0,1,3.455,3.487,1.522,1.522,0,0,1-.387,1.84c-2.1,2.266-5.46,4.376-7.3,7.3a3.552,3.552,0,0,0-.258,3.455,6.119,6.119,0,0,0,1.421,1.744,4.225,4.225,0,0,0,3.648,1.13,6.725,6.725,0,0,0,3.745-2.1l8.2-8.265a.878.878,0,0,0,.226-.614V998.622a2.661,2.661,0,0,1,1.356-2.422,5.634,5.634,0,0,1,5.812,0,2.637,2.637,0,0,1,1.324,2.422V1027.2a.871.871,0,0,1-.065.161,6.583,6.583,0,0,1-.355.646c-.345.546-.868,1.256-1.485,2.1-1.235,1.685-2.892,3.825-4.552,5.909-3.321,4.168-6.651,8.169-6.651,8.169a.877.877,0,0,0-.194.549v3.067a.878.878,0,1,0,1.744,0v-2.712c.18-.216,3.247-3.905,6.49-7.975,1.668-2.094,3.323-4.219,4.585-5.941.631-.861,1.166-1.621,1.55-2.228a8.673,8.673,0,0,0,.452-.807,1.538,1.538,0,0,0,.258-.839V998.621a4.6,4.6,0,0,0-2.131-3.907,7.191,7.191,0,0,0-3.874-1.065Z" transform="translate(-6.5 -958.81)" fill="#e02b2b"/>
</svg>
