<svg xmlns="http://www.w3.org/2000/svg" width="121.578" height="90" viewBox="0 0 121.578 90">
  <g id="it-service" transform="translate(-11.5 -21.5)">
    <path id="Path_1647" data-name="Path 1647" d="M131.5,21.5H13.079A1.579,1.579,0,0,0,11.5,23.079v67.1a1.579,1.579,0,0,0,1.579,1.579H61.444l-5.79,8.684h-3.1a1.58,1.58,0,0,0-1.412.873l-3.947,7.895A1.579,1.579,0,0,0,48.6,111.5H95.973a.134.134,0,0,0,.031,0,1.58,1.58,0,0,0,1.255-2.539l-3.821-7.641a1.58,1.58,0,0,0-1.412-.873h-3.1l-5.79-8.684H131.5a1.579,1.579,0,0,0,1.579-1.579v-67.1A1.579,1.579,0,0,0,131.5,21.5ZM91.049,103.6l2.368,4.737H51.16l2.368-4.737H91.049Zm-5.921-3.158H59.449l5.79-8.684h14.1ZM129.92,88.6H14.658V24.658H129.92Z" fill="#eb7a7a"/>
    <path id="Path_1648" data-name="Path 1648" d="M43.5,49.118a1,1,0,0,0,1.023-.242l2.829-2.829,6.363,6.364a1,1,0,0,0,1.414,0l3.536-3.536a1,1,0,0,0,0-1.414L52.3,41.1l2.828-2.828a1,1,0,0,0-.565-1.7L42.187,34.805a1,1,0,0,0-1.132,1.131l1.768,12.375A1,1,0,0,0,43.5,49.118ZM52.3,38.27l-2.121,2.121a1,1,0,0,0,0,1.414l6.364,6.364-2.122,2.122-6.363-6.364a1,1,0,0,0-1.414,0L44.52,46.048l-1.3-9.075Z" transform="translate(22.289 11.223)" fill="#eb7a7a"/>
  </g>
</svg>
