<svg xmlns="http://www.w3.org/2000/svg" width="110.833" height="90" viewBox="0 0 110.833 90">
  <g id="real_estate" data-name="real estate" transform="translate(0)">
    <path id="Path_1649" data-name="Path 1649" d="M88.3,194.526H66.064a1.017,1.017,0,1,0,0,2.031H88.3a1.017,1.017,0,1,0,0-2.031Z" transform="translate(-57.332 -164.857)" fill="#e02b2b"/>
    <path id="Path_1650" data-name="Path 1650" d="M88.3,231.306H66.064a1.017,1.017,0,1,0,0,2.031H88.3a1.017,1.017,0,1,0,0-2.031Z" transform="translate(-57.332 -192.457)" fill="#e02b2b"/>
    <path id="Path_1651" data-name="Path 1651" d="M88.3,268.086H66.064a1.017,1.017,0,1,0,0,2.031H88.3a1.017,1.017,0,1,0,0-2.031Z" transform="translate(-57.332 -220.057)" fill="#e02b2b"/>
    <path id="Path_1652" data-name="Path 1652" d="M88.3,304.876H66.064a1.017,1.017,0,1,0,0,2.031H88.3a1.017,1.017,0,1,0,0-2.031Z" transform="translate(-57.332 -247.665)" fill="#e02b2b"/>
    <path id="Path_1653" data-name="Path 1653" d="M88.3,341.656H66.064a1.017,1.017,0,1,0,0,2.031H88.3a1.017,1.017,0,1,0,0-2.031Z" transform="translate(-57.332 -275.265)" fill="#e02b2b"/>
    <path id="Path_1654" data-name="Path 1654" d="M88.3,378.446H66.064a1.017,1.017,0,1,0,0,2.031H88.3a1.017,1.017,0,1,0,0-2.031Z" transform="translate(-57.332 -302.732)" fill="#e02b2b"/>
    <path id="Path_1655" data-name="Path 1655" d="M222.09,268.09a1.014,1.014,0,0,0-1.014,1.017v6.068a1.017,1.017,0,1,0,2.031,0v-6.068a1.014,1.014,0,0,0-1.017-1.017Z" transform="translate(-174.369 -220.02)" fill="#e02b2b"/>
    <path id="Path_1656" data-name="Path 1656" d="M248.772,276.192a1.017,1.017,0,0,0,1.022-1.017v-6.068a1.017,1.017,0,0,0-2.033,0v6.068A1.014,1.014,0,0,0,248.772,276.192Z" transform="translate(-194.394 -220.02)" fill="#e02b2b"/>
    <path id="Path_1657" data-name="Path 1657" d="M275.427,276.192a1.017,1.017,0,0,0,1.017-1.017v-6.068a1.017,1.017,0,0,0-2.033,0v6.068a1.014,1.014,0,0,0,1.017,1.017Z" transform="translate(-214.393 -220.02)" fill="#e02b2b"/>
    <path id="Path_1658" data-name="Path 1658" d="M302.1,276.192a1.017,1.017,0,0,0,1.017-1.017v-6.068a1.017,1.017,0,0,0-2.033,0v6.068a1.014,1.014,0,0,0,1.017,1.017Z" transform="translate(-234.407 -220.02)" fill="#e02b2b"/>
    <path id="Path_1659" data-name="Path 1659" d="M222.09,323.27a1.014,1.014,0,0,0-1.014,1.017v6.073a1.017,1.017,0,1,0,2.031,0v-6.073a1.014,1.014,0,0,0-1.017-1.017Z" transform="translate(-174.369 -261.415)" fill="#e02b2b"/>
    <path id="Path_1660" data-name="Path 1660" d="M248.772,331.372a1.017,1.017,0,0,0,1.022-1.012v-6.073a1.017,1.017,0,1,0-2.033,0v6.073A1.014,1.014,0,0,0,248.772,331.372Z" transform="translate(-194.394 -261.416)" fill="#e02b2b"/>
    <path id="Path_1661" data-name="Path 1661" d="M275.427,331.372a1.017,1.017,0,0,0,1.017-1.017v-6.068a1.017,1.017,0,1,0-2.033,0v6.073A1.014,1.014,0,0,0,275.427,331.372Z" transform="translate(-214.393 -261.416)" fill="#e02b2b"/>
    <path id="Path_1662" data-name="Path 1662" d="M302.1,331.372a1.017,1.017,0,0,0,1.017-1.017v-6.068a1.017,1.017,0,0,0-2.033,0v6.073A1.014,1.014,0,0,0,302.1,331.372Z" transform="translate(-234.407 -261.416)" fill="#e02b2b"/>
    <path id="Path_1663" data-name="Path 1663" d="M144.321,139.065l-7.715-5.39V88.161a1.028,1.028,0,0,0-1.026-1.028H100.013a1.028,1.028,0,0,0-1.028,1.028v22.148H84.976V76.688a1.026,1.026,0,0,0-1.028-1.028H61.69a1.028,1.028,0,0,0-1.036,1.028V88.97h-6.2V76.688a1.026,1.026,0,0,0-1.026-1.028H41.5a1.026,1.026,0,0,0-1.026,1.028V92.93h-5.5A1.026,1.026,0,0,0,33.94,93.96v70.671a1.026,1.026,0,0,0,1.026,1.028H143.747a1.026,1.026,0,0,0,1.026-1.028V139.909A1.023,1.023,0,0,0,144.321,139.065ZM42.524,77.714H52.4V90a1.026,1.026,0,0,0,1.028,1.026H61.69A1.026,1.026,0,0,0,62.718,90V77.714H82.93v33.624a1.026,1.026,0,0,0,1.026,1.028H100.02a1.026,1.026,0,0,0,1.026-1.028V89.189h33.507v43.051l-6.987-4.878a1.033,1.033,0,0,0-1.175,0l-15.131,10.575V118.681a1.026,1.026,0,0,0-1.028-1.028H74.084V93.96a1.026,1.026,0,0,0-1.026-1.026H42.524Zm-6.53,17.27H72.031V163.6H35.994Zm38.091,24.723h35.121v43.9H97.49V152.24a1.026,1.026,0,0,0-1.026-1.026H86.825A1.026,1.026,0,0,0,85.8,152.24v11.366H74.072Zm13.769,43.9V153.268h7.583v10.338Zm35.109,0V151.1a3.671,3.671,0,0,1,3.666-3.666h.711A3.671,3.671,0,0,1,131,151.1V163.6Zm19.745,0h-9.649V151.1a5.724,5.724,0,0,0-5.719-5.719h-.711a5.724,5.724,0,0,0-5.719,5.719V163.6h-9.649V140.443l15.72-10.979,15.72,10.979Z" transform="translate(-33.939 -75.66)" fill="#e02b2b"/>
  </g>
</svg>
