<svg xmlns="http://www.w3.org/2000/svg" width="93.786" height="90" viewBox="0 0 93.786 90">
  <g id="retail" transform="translate(0)">
    <path id="Path_1664" data-name="Path 1664" d="M95.9,90.442H89.792v-44.5a11.5,11.5,0,0,0,4.183-8.534,1.046,1.046,0,0,0,0-.711l-11-25.507A7.32,7.32,0,0,0,76.2,6.78H26a7.32,7.32,0,0,0-6.777,4.413L8.42,36.438a1.046,1.046,0,0,0-.261.669A11.5,11.5,0,0,0,12.4,46.028V90.442h-8.2A1.046,1.046,0,0,0,3.16,91.488v4.246A1.046,1.046,0,0,0,4.206,96.78H95.9a1.046,1.046,0,0,0,1.046-1.046V91.488A1.046,1.046,0,0,0,95.9,90.442ZM82.472,46.52a9.412,9.412,0,0,1-9.349-8.366H91.79A9.412,9.412,0,0,1,82.472,46.52ZM50.053,8.872v27.19H31.417l5.825-27.19Zm14.955,0,5.825,27.19H52.144V8.872ZM49.99,38.153a9.412,9.412,0,0,1-18.709,0Zm20.916,0a9.412,9.412,0,0,1-18.709,0ZM81.091,12.009l10.29,24.053H72.913L67.088,8.872H76.2A5.229,5.229,0,0,1,81.05,12.04Zm-59.9,0A5.229,5.229,0,0,1,26,8.872H35.15l-5.825,27.19H10.857ZM10.313,38.153H29.022a9.412,9.412,0,0,1-14.808,6.62.9.9,0,0,0-.272-.209,9.412,9.412,0,0,1-3.629-6.411ZM14.5,47.377a11.5,11.5,0,0,0,15.687-5.5,11.5,11.5,0,0,0,20.916,0,11.5,11.5,0,0,0,20.916,0A11.5,11.5,0,0,0,87.7,47.325V90.442H37.5V60.115a1.046,1.046,0,0,0-1.046-1.046H20.771a1.046,1.046,0,0,0-1.046,1.046V90.442H14.5ZM35.412,90.442h-13.6V61.161h13.6Zm59.442,4.246H5.252V92.534h89.6Z" transform="translate(-3.16 -6.78)" fill="#e02b2b"/>
    <path id="Path_1665" data-name="Path 1665" d="M41,78.78H78a1,1,0,0,0,1-1v-20a1,1,0,0,0-1-1H41a1,1,0,0,0-1,1v20A1,1,0,0,0,41,78.78Zm1-20H77v18H42Z" transform="translate(-0.176 -3.705)" fill="#e02b2b"/>
    <circle id="Ellipse_733" data-name="Ellipse 733" cx="1" cy="1" r="1" transform="translate(20.768 68.047)" fill="#e02b2b"/>
  </g>
</svg>
