<svg xmlns="http://www.w3.org/2000/svg" width="89.983" height="90" viewBox="0 0 89.983 90">
  <g id="socialk_media" data-name="socialk media" transform="translate(0)">
    <path id="Path_1666" data-name="Path 1666" d="M78.822,97.83A18.983,18.983,0,0,1,59.843,79.507l-15.119-1.9a14.568,14.568,0,0,1-3.45,5.461,14.813,14.813,0,1,1-14.8-24.631L25.345,45.763A19.008,19.008,0,1,1,45.8,25.908l12.943,1.73a14.563,14.563,0,0,1,3.38-5.276,14.812,14.812,0,1,1,15.9,24.247l1.817,13.252A19,19,0,0,1,78.822,97.83ZM43.878,76.267l17.173,2.158,0,.535A17.786,17.786,0,1,0,79.284,61.065l-.52-.014L76.673,45.8l.468-.166A13.6,13.6,0,1,0,59.731,28.5l-.161.479-14.968-2-.012-.524A17.781,17.781,0,1,0,25.937,44.573l.532.026,1.312,14.742-.5.132A13.587,13.587,0,1,0,40.411,82.2a13.4,13.4,0,0,0,3.313-5.451ZM88.8,88.388H68.846l.309-.827a10.127,10.127,0,0,1,5.384-5.643,7.055,7.055,0,1,1,8.571,0,10.113,10.113,0,0,1,5.385,5.645Zm-18.14-1.224H86.988a9,9,0,0,0-5.427-4.519L80.106,82.2l1.356-.689a5.831,5.831,0,1,0-5.274,0l1.358.687-1.458.444A9.01,9.01,0,0,0,70.662,87.164ZM38.705,80.116H22.9l.309-.827a7.932,7.932,0,0,1,4.024-4.339,5.586,5.586,0,1,1,7.145,0,7.944,7.944,0,0,1,4.025,4.34ZM24.729,78.893H36.871a6.817,6.817,0,0,0-4-3.218l-1.455-.441,1.356-.689a4.362,4.362,0,1,0-3.945,0l1.358.687-1.457.442A6.833,6.833,0,0,0,24.729,78.893Zm36.834-4.307-17.187-2.16-.026-.513a13.538,13.538,0,0,0-3.94-8.93,13.4,13.4,0,0,0-8.264-3.914l-.5-.05L30.329,44.268l.518-.119A17.67,17.67,0,0,0,44.013,31.354l.136-.523,14.868,1.987.019.517A13.531,13.531,0,0,0,72.325,46.414l.523.01,2.066,15.06-.529.134A17.675,17.675,0,0,0,61.7,74.074ZM45.537,71.338l15.135,1.9A18.89,18.89,0,0,1,73.555,60.577L71.777,47.618A14.751,14.751,0,0,1,57.841,33.9L45.049,32.185A18.885,18.885,0,0,1,31.641,45.213l1.131,12.7a14.6,14.6,0,0,1,8.5,4.208A14.76,14.76,0,0,1,45.537,71.338ZM80.5,40.36H64.69L65,39.533a7.942,7.942,0,0,1,4.024-4.34,5.585,5.585,0,1,1,7.145,0,7.941,7.941,0,0,1,4.026,4.341ZM66.523,39.136H78.666a6.828,6.828,0,0,0-4-3.217l-1.457-.441,1.357-.689a4.362,4.362,0,1,0-3.946,0l1.358.687-1.455.442A6.839,6.839,0,0,0,66.523,39.136ZM36.813,36.4H16.857l.31-.827a10.127,10.127,0,0,1,5.384-5.643,7.053,7.053,0,1,1,8.571,0,10.12,10.12,0,0,1,5.384,5.643Zm-18.14-1.223H35a9,9,0,0,0-5.427-4.52l-1.455-.441,1.357-.689a5.832,5.832,0,1,0-5.274,0l1.357.687-1.457.442A9.01,9.01,0,0,0,18.673,35.176Z" transform="translate(-7.838 -7.83)" fill="#e02b2b"/>
  </g>
</svg>
