<svg xmlns="http://www.w3.org/2000/svg" width="89.999" height="90" viewBox="0 0 89.999 90">
  <g id="start-up" transform="translate(0)">
    <path id="Path_1667" data-name="Path 1667" d="M102.016,12.275a.818.818,0,0,0-.64-.261A64.962,64.962,0,0,0,56.372,31c-1.369,1.369-2.7,2.818-3.96,4.322l-5.085,6.283L26.174,46.384a2.076,2.076,0,0,0-1.008.556L12.883,59.224a2.073,2.073,0,0,0,.228,3.129L24.2,70.6l2.263,2.263-4.437,8.572a.888.888,0,0,0,.161,1.037l1.5,1.5A15.083,15.083,0,0,0,22,85.4c-3.274,3.274-6.7,12.952-6.843,13.363A.888.888,0,0,0,16,99.942a.9.9,0,0,0,.3-.05c.41-.145,10.078-3.579,13.352-6.853h0a15.045,15.045,0,0,0,1.426-1.676l.744.744a.888.888,0,0,0,1.037.161l8.572-4.437,2.263,2.263,8.249,11.085a2.071,2.071,0,0,0,1.512.83c.05,0,.1.006.152.006a2.071,2.071,0,0,0,1.465-.607L67.348,89.121a2.074,2.074,0,0,0,.556-1.009l4.741-20.99,6.331-5.255c1.485-1.246,2.927-2.566,4.286-3.926a64.54,64.54,0,0,0,17.8-33.445,64.251,64.251,0,0,0,1.214-11.58A.888.888,0,0,0,102.016,12.275ZM14.172,60.927a.3.3,0,0,1-.033-.447L26.423,48.2a.3.3,0,0,1,.144-.08L45.459,43.85l-4.581,5.487-16.2,19.407ZM28.388,91.781h0c-2.19,2.19-7.924,4.6-10.875,5.754,1.146-2.953,3.556-8.694,5.745-10.883a13.521,13.521,0,0,1,1.678-1.425L29.813,90.1A13.49,13.49,0,0,1,28.388,91.781Zm4.224-1.392L23.9,81.676l3.879-7.493L40.1,86.51Zm33.56-2.67a.3.3,0,0,1-.08.146L53.807,100.149a.3.3,0,0,1-.231.086.292.292,0,0,1-.216-.119l-7.815-10.5L70.4,68.982ZM99.318,24.152A62.776,62.776,0,0,1,82.006,56.684c-1.323,1.322-2.726,2.608-4.168,3.818l-6.155,5.109a.873.873,0,0,0-.37.173L44.378,88.271l-2.135-2.135c-.007-.008-.009-.019-.017-.027L28.178,72.061c-.008-.008-.019-.009-.027-.016L26.016,69.91,37.364,56.319,48.51,42.969l5.273-6.515C55,35,56.3,33.59,57.628,32.258a63.208,63.208,0,0,1,42.85-18.45A62.178,62.178,0,0,1,99.318,24.152Z" transform="translate(-12.275 -12.012)" fill="#e02b2b"/>
    <path id="Path_1668" data-name="Path 1668" d="M65.617,27.8a6.845,6.845,0,1,0,4.838,2A6.8,6.8,0,0,0,65.617,27.8Zm3.778,10.622a5.342,5.342,0,1,1,1.565-3.778A5.349,5.349,0,0,1,69.395,38.425Z" transform="translate(-1.806 -8.457)" fill="#e02b2b"/>
    <path id="Path_1669" data-name="Path 1669" d="M48.74,51.523a.75.75,0,0,0,1.061,0l6.7-6.7a.75.75,0,0,0-1.061-1.061l-6.7,6.7A.75.75,0,0,0,48.74,51.523Z" transform="translate(-4.776 -5.487)" fill="#e02b2b"/>
    <path id="Path_1670" data-name="Path 1670" d="M49.771,40.181a.75.75,0,0,0-1.059.058L33.275,57.479a.75.75,0,0,0,1.117,1L49.829,41.24A.75.75,0,0,0,49.771,40.181Z" transform="translate(-7.332 -5.157)" fill="#e02b2b"/>
    <path id="Path_1671" data-name="Path 1671" d="M59.023,50.434,41.783,65.871a.75.75,0,0,0,1,1.117l17.24-15.437a.75.75,0,1,0-1-1.117Z" transform="translate(-5.106 -2.931)" fill="#e02b2b"/>
  </g>
</svg>
