<svg xmlns="http://www.w3.org/2000/svg" width="82.441" height="96.178" viewBox="0 0 82.441 96.178">
  <g id="design" transform="translate(-15.5 -9)">
    <rect id="Rectangle_178" data-name="Rectangle 178" width="81.441" height="70.883" rx="6.944" transform="translate(16 19.68)" fill="#fff" stroke="#8a8a8a" stroke-linecap="round" stroke-miterlimit="10" stroke-width="1"/>
    <rect id="Rectangle_179" data-name="Rectangle 179" width="30.163" height="30.163" rx="3.611" transform="translate(58.605 9.5)" fill="#fff" stroke="#8a8a8a" stroke-linecap="round" stroke-miterlimit="10" stroke-width="1"/>
    <g id="Group_150" data-name="Group 150" transform="translate(23.178 50.926)">
      <rect id="Rectangle_180" data-name="Rectangle 180" width="12.889" height="49.838" rx="3.611" transform="translate(0.783 0.468)" fill="#8a8a8a" stroke="#fff" stroke-linecap="round" stroke-miterlimit="10" stroke-width="1"/>
      <g id="Group_149" data-name="Group 149">
        <rect id="Rectangle_181" data-name="Rectangle 181" width="9.452" height="9.452" rx="1.111" transform="translate(2.502 2.187)" fill="#fff" stroke="#8a8a8a" stroke-linecap="round" stroke-miterlimit="10" stroke-width="1"/>
        <rect id="Rectangle_182" data-name="Rectangle 182" width="12.889" height="49.838" rx="3.611" transform="translate(12.747 51.199) rotate(-171.469)" fill="#8a8a8a" stroke="#fff" stroke-linecap="round" stroke-miterlimit="10" stroke-width="1"/>
        <rect id="Rectangle_183" data-name="Rectangle 183" width="12.889" height="49.838" rx="3.611" transform="translate(12.574 51.985) rotate(-163.801)" fill="#8a8a8a" stroke="#fff" stroke-linecap="round" stroke-miterlimit="10" stroke-width="1"/>
        <rect id="Rectangle_184" data-name="Rectangle 184" width="12.889" height="49.838" rx="3.611" transform="translate(19.041 1.534) rotate(22.216)" fill="#8a8a8a" stroke="#fff" stroke-linecap="round" stroke-miterlimit="10" stroke-width="1"/>
        <rect id="Rectangle_185" data-name="Rectangle 185" width="12.889" height="49.838" rx="3.611" transform="translate(25.196 3.599) rotate(28.381)" fill="#fff" stroke="#8a8a8a" stroke-linecap="round" stroke-miterlimit="10" stroke-width="1"/>
        <g id="Group_148" data-name="Group 148" transform="translate(11.305 6.002)">
          <rect id="Rectangle_186" data-name="Rectangle 186" width="9.452" height="9.452" rx="1.111" transform="translate(18.461 12.902) rotate(-150.159)" fill="#8a8a8a" stroke="#fff" stroke-linecap="round" stroke-miterlimit="10" stroke-width="1"/>
          <rect id="Rectangle_187" data-name="Rectangle 187" width="9.452" height="9.452" rx="1.111" transform="translate(13.33 21.846) rotate(-150.159)" fill="#8a8a8a" stroke="#fff" stroke-linecap="round" stroke-miterlimit="10" stroke-width="1"/>
          <rect id="Rectangle_188" data-name="Rectangle 188" width="9.452" height="9.452" rx="1.111" transform="translate(8.199 30.791) rotate(-150.159)" fill="#8a8a8a" stroke="#fff" stroke-linecap="round" stroke-miterlimit="10" stroke-width="1"/>
        </g>
      </g>
    </g>
    <line id="Line_99" data-name="Line 99" x2="3.016" transform="translate(52.573 21.565)" fill="#fff" stroke="#8a8a8a" stroke-linecap="round" stroke-miterlimit="10" stroke-width="1"/>
    <line id="Line_100" data-name="Line 100" x2="3.016" transform="translate(52.573 38.155)" fill="#fff" stroke="#8a8a8a" stroke-linecap="round" stroke-miterlimit="10" stroke-width="1"/>
    <line id="Line_101" data-name="Line 101" y2="13.95" transform="translate(54.081 22.696)" fill="#fff" stroke="#8a8a8a" stroke-linecap="round" stroke-miterlimit="10" stroke-width="1"/>
    <line id="Line_102" data-name="Line 102" y2="3.016" transform="translate(89.146 44.942)" fill="#fff" stroke="#8a8a8a" stroke-linecap="round" stroke-miterlimit="10" stroke-width="1"/>
    <line id="Line_103" data-name="Line 103" y2="3.016" transform="translate(60.114 44.942)" fill="#fff" stroke="#8a8a8a" stroke-linecap="round" stroke-miterlimit="10" stroke-width="1"/>
    <line id="Line_104" data-name="Line 104" x1="24.413" transform="translate(62.753 46.45)" fill="#fff" stroke="#8a8a8a" stroke-linecap="round" stroke-miterlimit="10" stroke-width="1"/>
    <g id="Group_151" data-name="Group 151" transform="translate(69.52 61.816)">
      <path id="Path_334" data-name="Path 334" d="M105.432,78.877l.143.141q-.143,1.423-.143,4.963l-.127.126h-.742l-.127-.142-.174-1.455a13.809,13.809,0,0,0-.2-1.43.681.681,0,0,0-.23-.379,2.842,2.842,0,0,0-1.026-.2q-.871-.079-1.944-.079H97.878Q97.751,84,97.751,84.55v9.213l.032,3.082q.015,1.786.087,2.315a1.38,1.38,0,0,0,.221.7,1.228,1.228,0,0,0,.576.285,12.524,12.524,0,0,0,2.117.181l.112.1v.79l-.112.127q-4.045-.127-4.519-.127-.506,0-4.5.127l-.126-.127v-.79l.126-.1a16.036,16.036,0,0,0,1.968-.158,1.435,1.435,0,0,0,.648-.245,1.277,1.277,0,0,0,.276-.639,12.883,12.883,0,0,0,.111-2.182l.032-3.335V84.55q0-.252-.127-4.125H92.315q-1.455,0-2.513.063t-1.225.324a5.731,5.731,0,0,0-.309,1.7l-.158,1.455-.142.142h-.727l-.127-.126q-.032-3.808-.142-4.963l.142-.141q2.751.126,9.15.126Q102.792,79,105.432,78.877Z" transform="translate(-86.974 -78.877)" fill="#fff" stroke="#8a8a8a" stroke-linecap="round" stroke-miterlimit="10" stroke-width="1"/>
    </g>
  </g>
</svg>
