<svg xmlns="http://www.w3.org/2000/svg" width="62" height="92" viewBox="0 0 62 92">
  <g id="Group_145" data-name="Group 145" transform="translate(-28 -6)">
    <g id="Rectangle_163" data-name="Rectangle 163" transform="translate(28 10)" fill="#fff" stroke="#8a8a8a" stroke-miterlimit="10" stroke-width="1">
      <rect width="62" height="88" rx="3.61" stroke="none"/>
      <rect x="0.5" y="0.5" width="61" height="87" rx="3.11" fill="none"/>
    </g>
    <g id="Rectangle_164" data-name="Rectangle 164" transform="translate(43 6)" fill="#fff" stroke="#8a8a8a" stroke-miterlimit="10" stroke-width="1">
      <path d="M2.957,0H28.043A2.957,2.957,0,0,1,31,2.957V7a0,0,0,0,1,0,0H0A0,0,0,0,1,0,7V2.957A2.957,2.957,0,0,1,2.957,0Z" stroke="none"/>
      <path d="M2.957.5H28.043A2.457,2.457,0,0,1,30.5,2.957V6a.5.5,0,0,1-.5.5H1A.5.5,0,0,1,.5,6V2.957A2.457,2.457,0,0,1,2.957.5Z" fill="none"/>
    </g>
    <path id="Path_331" data-name="Path 331" d="M86.52,16V92.576a2.176,2.176,0,0,1-2.176,2.176H37.176A2.176,2.176,0,0,1,35,92.576V16" transform="translate(-1.848 -2.64)" fill="#fff" stroke="#8a8a8a" stroke-miterlimit="10" stroke-width="1"/>
    <rect id="Rectangle_165" data-name="Rectangle 165" width="4.416" height="4.416" rx="1.084" transform="translate(36.464 35.072)" fill="#fff" stroke="#8a8a8a" stroke-miterlimit="10" stroke-width="1"/>
    <rect id="Rectangle_166" data-name="Rectangle 166" width="4.416" height="4.416" rx="1.084" transform="translate(36.464 43.168)" fill="#fff" stroke="#8a8a8a" stroke-miterlimit="10" stroke-width="1"/>
    <rect id="Rectangle_167" data-name="Rectangle 167" width="4.416" height="4.416" rx="1.084" transform="translate(36.464 51.264)" fill="#fff" stroke="#8a8a8a" stroke-miterlimit="10" stroke-width="1"/>
    <rect id="Rectangle_168" data-name="Rectangle 168" width="4.416" height="4.416" rx="1.084" transform="translate(36.464 59.36)" fill="#fff" stroke="#8a8a8a" stroke-miterlimit="10" stroke-width="1"/>
    <line id="Line_90" data-name="Line 90" x2="25.392" transform="translate(43.088 37.28)" fill="#fff" stroke="#8a8a8a" stroke-linecap="round" stroke-miterlimit="10" stroke-width="1"/>
    <line id="Line_91" data-name="Line 91" x2="25.392" transform="translate(43.088 45.376)" fill="#fff" stroke="#8a8a8a" stroke-linecap="round" stroke-miterlimit="10" stroke-width="1"/>
    <line id="Line_92" data-name="Line 92" x2="25.392" transform="translate(43.088 53.472)" fill="#fff" stroke="#8a8a8a" stroke-linecap="round" stroke-miterlimit="10" stroke-width="1"/>
    <line id="Line_93" data-name="Line 93" x2="25.392" transform="translate(43.088 60.832)" fill="#fff" stroke="#8a8a8a" stroke-linecap="round" stroke-miterlimit="10" stroke-width="1"/>
    <line id="Line_94" data-name="Line 94" x2="12.88" transform="translate(36.464 21.824)" fill="#fff" stroke="#8a8a8a" stroke-linecap="round" stroke-miterlimit="10" stroke-width="1"/>
  </g>
</svg>
