<svg xmlns="http://www.w3.org/2000/svg" width="91" height="64.091" viewBox="0 0 91 64.091">
  <g id="support" transform="translate(-29 -40.5)">
    <path id="Path_337" data-name="Path 337" d="M79.611,65.5H35.389A5.89,5.89,0,0,0,29.5,71.389V93.611A5.89,5.89,0,0,0,35.389,99.5H35.5v2.835a1.725,1.725,0,0,0,2.945,1.22L42.5,99.5H79.611A5.89,5.89,0,0,0,85.5,93.611V71.389A5.89,5.89,0,0,0,79.611,65.5Z" fill="#fff" stroke="#8a8a8a" stroke-linecap="round" stroke-miterlimit="10" stroke-width="1"/>
    <g id="Group_159" data-name="Group 159">
      <path id="Path_338" data-name="Path 338" d="M42.176,77.547a3.532,3.532,0,0,1,6.118,0l2.355,4.077L53,85.7A3.533,3.533,0,0,1,49.944,91H40.527a3.533,3.533,0,0,1-3.059-5.3l2.354-4.077Z" fill="#fff" stroke="#8a8a8a" stroke-linecap="round" stroke-miterlimit="10" stroke-width="1"/>
      <g id="Group_158" data-name="Group 158">
        <path id="Path_339" data-name="Path 339" d="M44.618,86.886a.66.66,0,0,1,.474.193.68.68,0,0,1-.474,1.164.657.657,0,0,1-.482-.2.679.679,0,0,1,.482-1.158Zm.67-6.853v.6q0,.034-.125,1.329-.187,1.907-.318,3.69l-.312.284-.108-.057q-.045-1.141-.267-3.367l-.113-1.283q-.022-.351-.023-.743.46-.216.886-.455Z" fill="#8a8a8a"/>
      </g>
    </g>
    <g id="Group_160" data-name="Group 160">
      <path id="Path_340" data-name="Path 340" d="M119.5,60.5c0-10.77-16.565-19.5-37-19.5s-37,8.73-37,19.5S62.065,80,82.5,80c9.721,0,18.561-1.979,25.164-5.21.708.733,3.424,4.492,4.081,5.2,1.008,1.083,3.123.619,3.33-.728L113.916,70.8C117.451,67.81,119.5,64.282,119.5,60.5Z" fill="#8a8a8a" stroke="#fff" stroke-linecap="round" stroke-miterlimit="10" stroke-width="1"/>
      <circle id="Ellipse_289" data-name="Ellipse 289" cx="3.522" cy="3.522" r="3.522" transform="translate(68 56.957)" fill="#fff"/>
      <circle id="Ellipse_290" data-name="Ellipse 290" cx="3.522" cy="3.522" r="3.522" transform="translate(78.565 56.957)" fill="#fff"/>
      <circle id="Ellipse_291" data-name="Ellipse 291" cx="3.522" cy="3.522" r="3.522" transform="translate(87.957 56.957)" fill="#fff"/>
    </g>
  </g>
</svg>
